<svg height="628" width="840.0000000000001" xmlns="http://www.w3.org/2000/svg">
 <!-- Created with Image Occlusion Enhanced -->
 <g>
  <title>Labels</title>
 </g>
 <g>
  <title>Masks</title>
  <rect fill="#FFEBA2" height="45.45455" id="2d6d7b511e7145acb8ba60cb67228605-ao-1" stroke="#2D2D2D" width="83.11688" x="197.66236" y="182.38961"/>
  <rect fill="#FFEBA2" height="40.25974" id="2d6d7b511e7145acb8ba60cb67228605-ao-2" stroke="#2D2D2D" width="72.72727" x="334.026" y="335.63637"/>
  <rect fill="#FFEBA2" height="42.85714" id="2d6d7b511e7145acb8ba60cb67228605-ao-3" stroke="#2D2D2D" width="107.79221" x="115.84417" y="310.96104"/>
  <rect fill="#FFEBA2" height="75.32468" id="2d6d7b511e7145acb8ba60cb67228605-ao-4" stroke="#2D2D2D" width="62.33766" x="15.84417" y="262.90909"/>
  <rect fill="#FFEBA2" height="20.77922" id="2d6d7b511e7145acb8ba60cb67228605-ao-5" stroke="#2D2D2D" width="72.72727" x="521.03899" y="186.28572"/>
  <rect fill="#FFEBA2" height="45.45455" id="2d6d7b511e7145acb8ba60cb67228605-ao-6" stroke="#2D2D2D" width="124.67533" x="441.81821" y="334.33767"/>
  <rect fill="#FFEBA2" height="50.64935" id="2d6d7b511e7145acb8ba60cb67228605-ao-7" stroke="#2D2D2D" width="96.1039" x="509.35067" y="539.53248"/>
  <rect fill="#FFEBA2" height="18.18182" id="2d6d7b511e7145acb8ba60cb67228605-ao-8" stroke="#2D2D2D" width="118.18182" x="622.33769" y="584.98702"/>
  
  <path d="m2.85716,507.06494l312.72725,-0.57144l-3.89609,-50.64935l-189.6104,1.29871l0,25.97403c0,0 -121.81816,1.87015 -121.81816,1.87015c0,0 2.5974,22.07791 2.5974,22.07791z" fill="#FFEBA2" id="2d6d7b511e7145acb8ba60cb67228605-ao-10" stroke="#2D2D2D" stroke-width="3"/>
  <rect fill="#FFEBA2" height="23.37662" id="2d6d7b511e7145acb8ba60cb67228605-ao-11" stroke="#2D2D2D" width="181.81819" x="217.14288" y="512.25975"/>
  <rect fill="#FFEBA2" height="24.67533" id="2d6d7b511e7145acb8ba60cb67228605-ao-12" stroke="#2D2D2D" width="210.38961" x="201.55846" y="539.53248"/>
 </g>
</svg>