<svg height="3185" width="2000" xmlns="http://www.w3.org/2000/svg">
 <!-- Created with Image Occlusion Enhanced -->
 <g>
  <title>Labels</title>
 </g>
 <g>
  <title>Masks</title>
  <rect fill="#FFEBA2" height="209.21053" id="3141d7b332b54bf5b8d55989a8290a05-oa-1" stroke="#2D2D2D" width="248.68422" x="76.31582" y="122.89485"/>
  <rect fill="#FFEBA2" height="193.42106" id="3141d7b332b54bf5b8d55989a8290a05-oa-2" stroke="#2D2D2D" width="359.21054" x="459.21057" y="12.36853"/>
  <rect fill="#FFEBA2" height="201.3158" id="3141d7b332b54bf5b8d55989a8290a05-oa-3" stroke="#2D2D2D" width="213.1579" x="1197.36849" y="79.4738"/>
  <rect fill="#FFEBA2" height="134.21053" id="3141d7b332b54bf5b8d55989a8290a05-oa-4" stroke="#2D2D2D" width="327.63159" x="1339.47376" y="312.36854"/>
  <rect fill="#FFEBA2" height="256.57896" id="3141d7b332b54bf5b8d55989a8290a05-oa-5" stroke="#2D2D2D" width="248.68422" x="1682.89482" y="770.2633"/>
  <rect fill="#FFEBA2" height="217.10527" id="3141d7b332b54bf5b8d55989a8290a05-oa-6" stroke="#2D2D2D" width="264.47369" x="1631.57903" y="1263.68437"/>
  <rect fill="#FFEBA2" height="272.36843" id="3141d7b332b54bf5b8d55989a8290a05-oa-7" stroke="#2D2D2D" width="209.21053" x="826.31584" y="675.52645"/>
  <rect fill="#FFEBA2" height="225.00001" id="3141d7b332b54bf5b8d55989a8290a05-oa-8" stroke="#2D2D2D" width="386.84212" x="40.7895" y="1003.15804"/>
  <rect fill="#FFEBA2" height="173.68422" id="3141d7b332b54bf5b8d55989a8290a05-oa-9" stroke="#2D2D2D" width="236.84211" x="246.05267" y="1595.26333"/>
  <rect fill="#FFEBA2" height="173.68422" id="3141d7b332b54bf5b8d55989a8290a05-oa-10" stroke="#2D2D2D" width="201.3158" x="1240.78954" y="1733.42123"/>
  <rect fill="#FFEBA2" height="232.89475" id="3141d7b332b54bf5b8d55989a8290a05-oa-11" stroke="#2D2D2D" width="236.84211" x="1481.57902" y="1540.00017"/>
  <rect fill="#FFEBA2" height="319.73685" id="3141d7b332b54bf5b8d55989a8290a05-oa-12" stroke="#2D2D2D" width="284.21054" x="1548.68429" y="2025.5265"/>
  <rect fill="#FFEBA2" height="130.26316" id="3141d7b332b54bf5b8d55989a8290a05-oa-13" stroke="#2D2D2D" width="292.10527" x="1359.2106" y="2511.05283"/>
  <rect fill="#FFEBA2" height="276.3158" id="3141d7b332b54bf5b8d55989a8290a05-oa-14" stroke="#2D2D2D" width="272.36843" x="1552.63166" y="2893.94758"/>
  <rect fill="#FFEBA2" height="193.42106" id="3141d7b332b54bf5b8d55989a8290a05-oa-15" stroke="#2D2D2D" width="201.3158" x="992.10532" y="2917.63179"/>
 </g>
</svg>