<svg height="565" width="796" xmlns="http://www.w3.org/2000/svg">
 <!-- Created with Image Occlusion Enhanced -->
 <g>
  <title>Labels</title>
 </g>
 <g>
  <title>Masks</title>
  <rect fill="#ffaaaa" height="37.5" id="31da79e1352d420083df88127db7706c-oa-1" stroke="#2D2D2D" width="158.33334" x="23.44445" y="137.7778"/>
  <rect fill="#ffaaaa" height="70.83334" id="31da79e1352d420083df88127db7706c-oa-2" stroke="#2D2D2D" width="101.38889" x="24.83334" y="396.11115"/>
  <rect fill="#ffaaaa" height="54.16667" id="31da79e1352d420083df88127db7706c-oa-3" stroke="#2D2D2D" width="101.38889" x="149.83335" y="435.00004"/>
  <rect fill="#ffaaaa" height="61.11111" id="31da79e1352d420083df88127db7706c-oa-4" stroke="#2D2D2D" width="186.11112" x="512.33336" y="412.77781"/>
  <rect fill="#ffaaaa" height="58.33334" id="31da79e1352d420083df88127db7706c-oa-5" stroke="#2D2D2D" width="183.33334" x="513.72225" y="297.50003"/>
  <rect fill="#ffaaaa" height="22.22222" id="31da79e1352d420083df88127db7706c-oa-6" stroke="#2D2D2D" width="175.00001" x="462.33336" y="246.11114"/>
  <rect fill="#ffaaaa" height="52.77778" id="31da79e1352d420083df88127db7706c-oa-7" stroke="#2D2D2D" width="245.83334" x="465.11114" y="183.61114"/>
  <rect fill="#ffaaaa" height="29.16667" id="31da79e1352d420083df88127db7706c-oa-8" stroke="#2D2D2D" width="162.50001" x="488.72225" y="121.11113"/>
  <rect fill="#ffaaaa" height="26.38889" id="31da79e1352d420083df88127db7706c-oa-9" stroke="#2D2D2D" width="158.33334" x="490.11114" y="14.16668"/>
  <rect fill="#ffffaa" height="20.83333" id="31da79e1352d420083df88127db7706c-oa-10" stroke="#2D2D2D" width="266.66668" x="456.7778" y="41.94446"/>
  <rect fill="#ffffaa" height="29.16667" id="31da79e1352d420083df88127db7706c-oa-11" stroke="#2D2D2D" width="100" x="110.94446" y="282.22225"/>
  <rect fill="#ffffaa" height="29.16667" id="31da79e1352d420083df88127db7706c-oa-12" stroke="#2D2D2D" transform="rotate(-30.5297 304.04 203.847)" width="76.60423" x="265.73747" y="189.26399"/>
  <rect fill="#ffffaa" height="24.15871" id="31da79e1352d420083df88127db7706c-oa-13" stroke="#2D2D2D" stroke-dasharray="null" stroke-linecap="null" stroke-linejoin="null" transform="rotate(-31.0532 367.013 163.036)" width="65.66013" x="334.18282" y="150.95651"/>
  <rect fill="#ffffaa" height="44.07961" id="31da79e1352d420083df88127db7706c-oa-14" stroke="#2D2D2D" stroke-dasharray="null" stroke-linecap="null" stroke-linejoin="null" transform="rotate(-35.789 269.278 97.5)" width="124.22091" x="207.16734" y="75.46021"/>
 </g>
</svg>