<svg height="440" width="1354" xmlns="http://www.w3.org/2000/svg">
 <!-- Created with Image Occlusion Enhanced -->
 <g>
  <title>Labels</title>
 </g>
 <g>
  <title>Masks</title>
  <rect fill="#FFEBA2" height="26.21359" id="5a2a2a020bf54ba5a94f09a699789f3d-oa-1" stroke="#2D2D2D" width="202.91263" x="105.22329" y="284.27182"/>
  <rect fill="#FFEBA2" height="31.06796" id="5a2a2a020bf54ba5a94f09a699789f3d-oa-2" stroke="#2D2D2D" width="135.92233" x="174.15535" y="54.17474"/>
  <rect fill="#FFEBA2" height="25.24272" id="5a2a2a020bf54ba5a94f09a699789f3d-oa-3" stroke="#2D2D2D" width="166.01942" x="145.02913" y="94.95144"/>
  <rect fill="#FFEBA2" height="26.21359" id="5a2a2a020bf54ba5a94f09a699789f3d-oa-4" stroke="#2D2D2D" width="166.01942" x="140.17476" y="128.93202"/>
  <rect fill="#FFEBA2" height="26.21359" id="5a2a2a020bf54ba5a94f09a699789f3d-oa-5" stroke="#2D2D2D" width="159.2233" x="154.73787" y="170.67959"/>
  <rect fill="#FFEBA2" height="24.27184" id="5a2a2a020bf54ba5a94f09a699789f3d-oa-6" stroke="#2D2D2D" width="153.39806" x="159.59224" y="209.51455"/>
  <rect fill="#FFEBA2" height="25.24272" id="5a2a2a020bf54ba5a94f09a699789f3d-oa-7" stroke="#2D2D2D" width="166.99029" x="141.14564" y="249.32037"/>
  <rect fill="#FFEBA2" height="26.21359" id="5a2a2a020bf54ba5a94f09a699789f3d-oa-8" stroke="#2D2D2D" width="202.91263" x="103.76699" y="321.65049"/>
  <rect fill="#FFEBA2" height="26.21359" id="5a2a2a020bf54ba5a94f09a699789f3d-oa-9" stroke="#2D2D2D" width="202.91263" x="103.76699" y="357.57282"/>
  <rect fill="#FFEBA2" height="26.21359" id="5a2a2a020bf54ba5a94f09a699789f3d-oa-10" stroke="#2D2D2D" width="202.91263" x="103.76699" y="392.52428"/>
  <rect fill="#FFEBA2" height="26.21359" id="5a2a2a020bf54ba5a94f09a699789f3d-oa-11" stroke="#2D2D2D" width="217.47573" x="1038.71844" y="75.04854"/>
  <rect fill="#FFEBA2" height="26.21359" id="5a2a2a020bf54ba5a94f09a699789f3d-oa-12" stroke="#2D2D2D" width="202.91263" x="1039.68932" y="127.47573"/>
  <rect fill="#FFEBA2" height="26.21359" id="5a2a2a020bf54ba5a94f09a699789f3d-oa-13" stroke="#2D2D2D" width="214.56312" x="1038.71845" y="172.13593"/>
  <rect fill="#FFEBA2" height="26.21359" id="5a2a2a020bf54ba5a94f09a699789f3d-oa-14" stroke="#2D2D2D" width="202.91263" x="1040.66018" y="208.05826"/>
  <rect fill="#FFEBA2" height="26.21359" id="5a2a2a020bf54ba5a94f09a699789f3d-oa-15" stroke="#2D2D2D" width="202.91263" x="1037.74758" y="248.83496"/>
  <rect fill="#FFEBA2" height="26.21359" id="5a2a2a020bf54ba5a94f09a699789f3d-oa-16" stroke="#2D2D2D" width="202.91263" x="1038.71844" y="282.81554"/>
  <rect fill="#FFEBA2" height="26.21359" id="5a2a2a020bf54ba5a94f09a699789f3d-oa-17" stroke="#2D2D2D" width="202.91263" x="1038.71844" y="320.67961"/>
  <rect fill="#FFEBA2" height="26.21359" id="5a2a2a020bf54ba5a94f09a699789f3d-oa-18" stroke="#2D2D2D" width="202.91263" x="1039.68932" y="358.54369"/>
  <rect fill="#FFEBA2" height="26.21359" id="5a2a2a020bf54ba5a94f09a699789f3d-oa-19" stroke="#2D2D2D" width="202.91263" x="1040.66018" y="394.46602"/>
 </g>
</svg>