<svg height="828" width="1600" xmlns="http://www.w3.org/2000/svg">
 <!-- Created with Image Occlusion Enhanced -->
 <g>
  <title>Labels</title>
 </g>
 <g>
  <title>Masks</title>
  <rect fill="#FFEBA2" height="30.35714" id="6ec8b39f5e1843b18ffb1726db631884-oa-1" stroke="#2D2D2D" width="348.21429" x="180.35714" y="66.64288"/>
  <rect fill="#FFEBA2" height="19.64286" id="6ec8b39f5e1843b18ffb1726db631884-oa-2" stroke="#2D2D2D" width="321.42857" x="278.57143" y="104.14288"/>
  <rect fill="#FFEBA2" height="28.57143" id="6ec8b39f5e1843b18ffb1726db631884-oa-3" stroke="#2D2D2D" width="278.57143" x="396.42857" y="127.35716"/>
  <rect fill="#FFEBA2" height="25" id="6ec8b39f5e1843b18ffb1726db631884-oa-4" stroke="#2D2D2D" width="280.35714" x="219.64286" y="163.07145"/>
  <rect fill="#FFEBA2" height="26.78571" id="6ec8b39f5e1843b18ffb1726db631884-oa-5" stroke="#2D2D2D" width="635.71429" x="300" y="197.00002"/>
  <rect fill="#FFEBA2" height="21.42857" id="6ec8b39f5e1843b18ffb1726db631884-oa-6" stroke="#2D2D2D" width="342.85714" x="271.42857" y="227.35716"/>
  <rect fill="#FFEBA2" height="25" id="6ec8b39f5e1843b18ffb1726db631884-oa-7" stroke="#2D2D2D" width="387.5" x="333.92857" y="252.35716"/>
  <rect fill="#FFEBA2" height="25" id="6ec8b39f5e1843b18ffb1726db631884-oa-8" stroke="#2D2D2D" width="358.92857" x="448.21429" y="284.50002"/>
  <rect fill="#FFEBA2" height="25" id="6ec8b39f5e1843b18ffb1726db631884-oa-9" stroke="#2D2D2D" width="358.92857" x="440.17856" y="314.85714"/>
  <rect fill="#FFEBA2" height="25" id="6ec8b39f5e1843b18ffb1726db631884-oa-10" stroke="#2D2D2D" width="358.92857" x="281.24999" y="345.21429"/>
  <rect fill="#FFEBA2" height="25" id="6ec8b39f5e1843b18ffb1726db631884-oa-11" stroke="#2D2D2D" width="358.92857" x="384.82143" y="377.35714"/>
  <rect fill="#FFEBA2" height="25" id="6ec8b39f5e1843b18ffb1726db631884-oa-12" stroke="#2D2D2D" width="358.92857" x="604.46429" y="436.28571"/>
  <rect fill="#FFEBA2" height="25" id="6ec8b39f5e1843b18ffb1726db631884-oa-13" stroke="#2D2D2D" width="358.92857" x="577.67858" y="407.71428"/>
  <rect fill="#FFEBA2" height="25" id="6ec8b39f5e1843b18ffb1726db631884-oa-14" stroke="#2D2D2D" width="358.92857" x="608.03572" y="464.85714"/>
  <rect fill="#FFEBA2" height="25" id="6ec8b39f5e1843b18ffb1726db631884-oa-15" stroke="#2D2D2D" width="358.92857" x="300.89287" y="496.99999"/>
  <rect fill="#FFEBA2" height="25" id="6ec8b39f5e1843b18ffb1726db631884-oa-16" stroke="#2D2D2D" width="358.92857" x="295.53573" y="529.14285"/>
  <rect fill="#FFEBA2" height="25" id="6ec8b39f5e1843b18ffb1726db631884-oa-17" stroke="#2D2D2D" width="671.42859" x="2.67857" y="557.71428"/>
  <rect fill="#FFEBA2" height="25" id="6ec8b39f5e1843b18ffb1726db631884-oa-18" stroke="#2D2D2D" width="671.42859" x="125.00001" y="588.0714"/>
  <rect fill="#FFEBA2" height="25" id="6ec8b39f5e1843b18ffb1726db631884-oa-19" stroke="#2D2D2D" width="358.92857" x="95.53573" y="620.21428"/>
  <rect fill="#FFEBA2" height="25" id="6ec8b39f5e1843b18ffb1726db631884-oa-20" stroke="#2D2D2D" width="358.92857" x="99.10716" y="655.92857"/>
  <rect fill="#FFEBA2" height="25" id="6ec8b39f5e1843b18ffb1726db631884-oa-21" stroke="#2D2D2D" width="358.92857" x="108.03573" y="684.5"/>
  <rect fill="#FFEBA2" height="25" id="6ec8b39f5e1843b18ffb1726db631884-oa-22" stroke="#2D2D2D" width="358.92857" x="111.60718" y="720.2143"/>
  <rect fill="#FFEBA2" height="25" id="6ec8b39f5e1843b18ffb1726db631884-oa-23" stroke="#2D2D2D" width="294.64284" x="1240.17873" y="255.92885"/>
  <rect fill="#FFEBA2" height="25" id="6ec8b39f5e1843b18ffb1726db631884-oa-24" stroke="#2D2D2D" width="358.92857" x="1231.25003" y="438.07142"/>
 </g>
</svg>