<svg height="859" width="716" xmlns="http://www.w3.org/2000/svg">
 <!-- Created with Image Occlusion Enhanced -->
 <g>
  <title>Labels</title>
 </g>
 <g>
  <title>Masks</title>
  <rect fill="#FFEBA2" height="15.71429" id="7af53e7c75c2456b8db28e5e4772846a-oa-1" stroke="#2D2D2D" width="120" x="22.57141" y="29.57146"/>
  <rect fill="#FFEBA2" height="20" id="7af53e7c75c2456b8db28e5e4772846a-oa-2" stroke="#2D2D2D" width="92.85714" x="545.42854" y="51.00004"/>
  <rect fill="#FFEBA2" height="32.85714" id="7af53e7c75c2456b8db28e5e4772846a-oa-3" stroke="#2D2D2D" width="121.42857" x="518.28568" y="119.57146"/>
  <rect fill="#FFEBA2" height="22.85714" id="7af53e7c75c2456b8db28e5e4772846a-oa-4" stroke="#2D2D2D" width="104.28571" x="41.14284" y="73.85718"/>
  <rect fill="#FFEBA2" height="21.42857" id="7af53e7c75c2456b8db28e5e4772846a-oa-5" stroke="#2D2D2D" width="121.42857" x="21.14284" y="125.28575"/>
  <rect fill="#FFEBA2" height="31.42857" id="7af53e7c75c2456b8db28e5e4772846a-oa-6" stroke="#2D2D2D" width="97.14285" x="35.42855" y="185.28575"/>
  <rect fill="#FFEBA2" height="20" id="7af53e7c75c2456b8db28e5e4772846a-oa-7" stroke="#2D2D2D" width="87.14286" x="43.99998" y="246.71432"/>
  <rect fill="#FFEBA2" height="24.28571" id="7af53e7c75c2456b8db28e5e4772846a-oa-8" stroke="#2D2D2D" width="152.85714" x="536.85711" y="278.14289"/>
  <rect fill="#FFEBA2" height="30" id="7af53e7c75c2456b8db28e5e4772846a-oa-9" stroke="#2D2D2D" width="104.28571" x="19.71427" y="298.14289"/>
  <rect fill="#FFEBA2" height="21.42857" id="7af53e7c75c2456b8db28e5e4772846a-oa-10" stroke="#2D2D2D" width="97.14285" x="25.42855" y="356.71431"/>
  <rect fill="#FFEBA2" height="27.14286" id="7af53e7c75c2456b8db28e5e4772846a-oa-11" stroke="#2D2D2D" width="91.42857" x="33.99998" y="402.4286"/>
  <rect fill="#FFEBA2" height="18.57143" id="7af53e7c75c2456b8db28e5e4772846a-oa-12" stroke="#2D2D2D" width="91.42857" x="32.57141" y="456.71431"/>
  <rect fill="#FFEBA2" height="20" id="7af53e7c75c2456b8db28e5e4772846a-oa-13" stroke="#2D2D2D" width="95.71428" x="28.2857" y="502.4286"/>
  <rect fill="#FFEBA2" height="27.14286" id="7af53e7c75c2456b8db28e5e4772846a-oa-14" stroke="#2D2D2D" width="101.42857" x="26.85712" y="546.71431"/>
  <rect fill="#FFEBA2" height="21.42857" id="7af53e7c75c2456b8db28e5e4772846a-oa-15" stroke="#2D2D2D" width="135.71428" x="415.42854" y="423.85717"/>
  <rect fill="#FFEBA2" height="15.71429" id="7af53e7c75c2456b8db28e5e4772846a-oa-16" stroke="#2D2D2D" width="164.28571" x="421.14283" y="459.57145"/>
  <rect fill="#FFEBA2" height="14.28571" id="7af53e7c75c2456b8db28e5e4772846a-oa-17" stroke="#2D2D2D" width="87.14286" x="419.71426" y="553.85717"/>
  <rect fill="#FFEBA2" height="15.71429" id="7af53e7c75c2456b8db28e5e4772846a-oa-18" stroke="#2D2D2D" width="147.14285" x="415.42854" y="489.57145"/>
 </g>
</svg>