<svg height="525" width="1106" xmlns="http://www.w3.org/2000/svg">
 <!-- Created with Image Occlusion Enhanced -->
 <g>
  <title>Labels</title>
 </g>
 <g>
  <title>Masks</title>
  <rect fill="#FFEBA2" height="42.52874" id="8d415832b1774b1d9d8987b9dd21baa3-ao-1" stroke="#2D2D2D" width="639.08048" x="452.62074" y="4.88505"/>
  <rect fill="#FFEBA2" height="20.68966" id="8d415832b1774b1d9d8987b9dd21baa3-ao-2" stroke="#2D2D2D" width="180.45978" x="526.18396" y="52.01149"/>
  <rect fill="#FFEBA2" height="48.27586" id="8d415832b1774b1d9d8987b9dd21baa3-ao-3" stroke="#2D2D2D" width="205.74713" x="690.55178" y="83.04597"/>
  <rect fill="#FFEBA2" height="28.73563" id="8d415832b1774b1d9d8987b9dd21baa3-ao-4" stroke="#2D2D2D" width="173.56322" x="773.3104" y="194.54023"/>
  <rect fill="#FFEBA2" height="52.87356" id="8d415832b1774b1d9d8987b9dd21baa3-ao-5" stroke="#2D2D2D" width="197.70116" x="758.36787" y="291.09195"/>
  <rect fill="#FFEBA2" height="24.13793" id="8d415832b1774b1d9d8987b9dd21baa3-ao-6" stroke="#2D2D2D" width="80.45977" x="582.5058" y="264.65517"/>
  
  <rect fill="#FFEBA2" height="28.73563" id="8d415832b1774b1d9d8987b9dd21baa3-ao-8" stroke="#2D2D2D" width="100" x="543.42534" y="184.1954"/>
  <rect fill="#FFEBA2" height="22.98851" id="8d415832b1774b1d9d8987b9dd21baa3-ao-9" stroke="#2D2D2D" width="132.18391" x="572.16097" y="334.77012"/>
  <rect fill="#FFEBA2" height="24.13793" id="8d415832b1774b1d9d8987b9dd21baa3-ao-10" stroke="#2D2D2D" width="117.24138" x="490.55177" y="366.95403"/>
  <rect fill="#FFEBA2" height="19.54023" id="8d415832b1774b1d9d8987b9dd21baa3-ao-11" stroke="#2D2D2D" width="147.12644" x="330.78165" y="483.04598"/>
  <rect fill="#FFEBA2" height="29.88506" id="8d415832b1774b1d9d8987b9dd21baa3-ao-12" stroke="#2D2D2D" width="328.73564" x="50.32187" y="424.42529"/>
  <rect fill="#FFEBA2" height="50.57471" id="8d415832b1774b1d9d8987b9dd21baa3-ao-13" stroke="#2D2D2D" width="188.50575" x="123.88509" y="357.75862"/>
  <rect fill="#FFEBA2" height="49.42529" id="8d415832b1774b1d9d8987b9dd21baa3-ao-14" stroke="#2D2D2D" width="300.00001" x="61.81613" y="265.8046"/>
  <rect fill="#FFEBA2" height="48.27586" id="8d415832b1774b1d9d8987b9dd21baa3-ao-15" stroke="#2D2D2D" width="310.34484" x="72.16096" y="181.89655"/>
  <rect fill="#FFEBA2" height="31.03448" id="8d415832b1774b1d9d8987b9dd21baa3-ao-16" stroke="#2D2D2D" width="166.66667" x="6.64371" y="99.13793"/>
  <rect fill="#FFEBA2" height="22.98851" id="8d415832b1774b1d9d8987b9dd21baa3-ao-17" stroke="#2D2D2D" width="132.18391" x="268.71269" y="63.50574"/>
 </g>
</svg>