<svg height="653" width="991.9999999999999" xmlns="http://www.w3.org/2000/svg">
 <!-- Created with Image Occlusion Enhanced -->
 <g>
  <title>Labels</title>
 </g>
 <g>
  <title>Masks</title>
  <rect fill="#FFEBA2" height="29.34783" id="8fcec88cfdd44ce2846f1fede244401c-oa-1" stroke="#2D2D2D" width="84.78261" x="564.52171" y="16.56521"/>
  <rect fill="#FFEBA2" height="28.26087" id="8fcec88cfdd44ce2846f1fede244401c-oa-2" stroke="#2D2D2D" width="150" x="611.26084" y="63.30434"/>
  <rect fill="#FFEBA2" height="30.43478" id="8fcec88cfdd44ce2846f1fede244401c-oa-3" stroke="#2D2D2D" width="252.17391" x="666.69563" y="113.30434"/>
  <rect fill="#FFEBA2" height="26.08696" id="8fcec88cfdd44ce2846f1fede244401c-oa-4" stroke="#2D2D2D" width="65.21739" x="671.04345" y="200.26086"/>
  <rect fill="#FFEBA2" height="23.91304" id="8fcec88cfdd44ce2846f1fede244401c-oa-5" stroke="#2D2D2D" width="113.04348" x="613.43476" y="151.34781"/>
  <rect fill="#FFEBA2" height="27.17391" id="8fcec88cfdd44ce2846f1fede244401c-oa-6" stroke="#2D2D2D" width="126.08695" x="328.65215" y="183.95651"/>
  <rect fill="#FFEBA2" height="29.34783" id="8fcec88cfdd44ce2846f1fede244401c-oa-7" stroke="#2D2D2D" width="188.04348" x="609.08693" y="246.99999"/>
  <rect fill="#FFEBA2" height="170.65217" id="8fcec88cfdd44ce2846f1fede244401c-oa-8" stroke="#2D2D2D" width="123.91304" x="259.08694" y="240.47825"/>
  <rect fill="#FFEBA2" height="31.52174" id="8fcec88cfdd44ce2846f1fede244401c-oa-9" stroke="#2D2D2D" width="143.47826" x="609.08693" y="293.73912"/>
  <rect fill="#FFEBA2" height="25" id="8fcec88cfdd44ce2846f1fede244401c-oa-10" stroke="#2D2D2D" width="173.91304" x="614.52171" y="357.86955"/>
  <rect fill="#FFEBA2" height="33.69565" id="8fcec88cfdd44ce2846f1fede244401c-oa-11" stroke="#2D2D2D" width="191.30434" x="627.56519" y="417.65216"/>
  <rect fill="#FFEBA2" height="30.43478" id="8fcec88cfdd44ce2846f1fede244401c-oa-12" stroke="#2D2D2D" width="189.13043" x="179.73911" y="433.9565"/>
  <rect fill="#FFEBA2" height="129.34782" id="8fcec88cfdd44ce2846f1fede244401c-oa-13" stroke="#2D2D2D" width="122.82608" x="249.30433" y="478.52172"/>
  <rect fill="#FFEBA2" height="20.65217" id="8fcec88cfdd44ce2846f1fede244401c-oa-14" stroke="#2D2D2D" width="172.82608" x="201.47824" y="628.52172"/>
  <rect fill="#FFEBA2" height="31.52174" id="8fcec88cfdd44ce2846f1fede244401c-oa-15" stroke="#2D2D2D" width="179.34782" x="617.78258" y="611.13041"/>
  <rect fill="#FFEBA2" height="33.69565" id="8fcec88cfdd44ce2846f1fede244401c-oa-16" stroke="#2D2D2D" width="168.47826" x="716.69562" y="543.73911"/>
  <rect fill="#FFEBA2" height="30.43478" id="8fcec88cfdd44ce2846f1fede244401c-oa-17" stroke="#2D2D2D" width="181.52174" x="666.69563" y="485.04346"/>
  <rect fill="#FFEBA2" height="30.43478" id="8fcec88cfdd44ce2846f1fede244401c-oa-18" stroke="#2D2D2D" width="172.82608" x="222.13042" y="45.91303"/>
  <rect fill="#FFEBA2" height="23.91304" id="8fcec88cfdd44ce2846f1fede244401c-oa-19" stroke="#2D2D2D" width="158.69565" x="225.39128" y="87.21738"/>
  <rect fill="#FFEBA2" height="28.26087" id="8fcec88cfdd44ce2846f1fede244401c-oa-20" stroke="#2D2D2D" width="218.47826" x="161.26085" y="125.26086"/>
  <rect fill="#FFEBA2" height="28.26087" id="8fcec88cfdd44ce2846f1fede244401c-oa-21" stroke="#2D2D2D" width="73.91304" x="77.5652" y="46.99999"/>
  <rect fill="#FFEBA2" height="25" id="8fcec88cfdd44ce2846f1fede244401c-oa-22" stroke="#2D2D2D" width="58.69565" x="-3.95654" y="82.86955"/>
  <rect fill="#FFEBA2" height="28.26087" id="8fcec88cfdd44ce2846f1fede244401c-oa-23" stroke="#2D2D2D" width="69.56522" x="75.39129" y="85.04347"/>
  <rect fill="#FFEBA2" height="22.82609" id="8fcec88cfdd44ce2846f1fede244401c-oa-24" stroke="#2D2D2D" width="51.08696" x="23.21738" y="125.26086"/>
 </g>
</svg>