<svg height="503" width="921" xmlns="http://www.w3.org/2000/svg">
 <!-- Created with Image Occlusion Enhanced -->
 <g>
  <title>Labels</title>
 </g>
 <g>
  <title>Masks</title>
  <rect fill="#FFEBA2" height="20.51282" id="90a8ce0bf1504c9d9d56b20dad99a4a2-ao-1" stroke="#2D2D2D" width="78.20513" x="164.89743" y="39.3077"/>
  <rect fill="#FFEBA2" height="17.94872" id="90a8ce0bf1504c9d9d56b20dad99a4a2-ao-2" stroke="#2D2D2D" width="92.30769" x="309.76922" y="40.58975"/>
  <rect fill="#FFEBA2" height="48.71795" id="90a8ce0bf1504c9d9d56b20dad99a4a2-ao-3" stroke="#2D2D2D" width="117.94872" x="468.74358" y="38.02565"/>
  <rect fill="#FFEBA2" height="46.15385" id="90a8ce0bf1504c9d9d56b20dad99a4a2-ao-4" stroke="#2D2D2D" width="115.38461" x="620.02563" y="39.3077"/>
  <rect fill="#FFEBA2" height="30.76923" id="90a8ce0bf1504c9d9d56b20dad99a4a2-ao-5" stroke="#2D2D2D" width="84.61538" x="768.74358" y="39.3077"/>
  <rect fill="#FFEBA2" height="23.07692" id="90a8ce0bf1504c9d9d56b20dad99a4a2-ao-6" stroke="#2D2D2D" width="115.38461" x="163.61538" y="94.43591"/>
  <rect fill="#FFEBA2" height="25.64103" id="90a8ce0bf1504c9d9d56b20dad99a4a2-ao-7" stroke="#2D2D2D" width="108.97436" x="313.61538" y="91.8718"/>
  <rect fill="#FFEBA2" height="51.28205" id="90a8ce0bf1504c9d9d56b20dad99a4a2-ao-8" stroke="#2D2D2D" width="126.92308" x="462.33332" y="91.8718"/>
  <rect fill="#FFEBA2" height="48.71795" id="90a8ce0bf1504c9d9d56b20dad99a4a2-ao-9" stroke="#2D2D2D" width="121.79487" x="620.02563" y="94.43591"/>
  
  <rect fill="#FFEBA2" height="42.30769" id="90a8ce0bf1504c9d9d56b20dad99a4a2-ao-11" stroke="#2D2D2D" width="139.74359" x="163.61538" y="171.35898"/>
  <rect fill="#FFEBA2" height="44.87179" id="90a8ce0bf1504c9d9d56b20dad99a4a2-ao-12" stroke="#2D2D2D" width="101.28205" x="314.89743" y="172.64103"/>
  <rect fill="#FFEBA2" height="46.15385" id="90a8ce0bf1504c9d9d56b20dad99a4a2-ao-13" stroke="#2D2D2D" width="128.20513" x="468.74358" y="171.35898"/>
  <rect fill="#FFEBA2" height="39.74359" id="90a8ce0bf1504c9d9d56b20dad99a4a2-ao-14" stroke="#2D2D2D" width="124.35897" x="616.17948" y="175.20514"/>
  <rect fill="#FFEBA2" height="42.30769" id="90a8ce0bf1504c9d9d56b20dad99a4a2-ao-15" stroke="#2D2D2D" width="121.79487" x="767.46153" y="172.64103"/>
  <rect fill="#FFEBA2" height="46.15385" id="90a8ce0bf1504c9d9d56b20dad99a4a2-ao-16" stroke="#2D2D2D" width="117.94872" x="161.05127" y="225.20514"/>
  <rect fill="#FFEBA2" height="38.46154" id="90a8ce0bf1504c9d9d56b20dad99a4a2-ao-17" stroke="#2D2D2D" width="120.51282" x="317.46153" y="230.33334"/>
  <rect fill="#FFEBA2" height="39.74359" id="90a8ce0bf1504c9d9d56b20dad99a4a2-ao-18" stroke="#2D2D2D" width="128.20513" x="464.89743" y="229.05129"/>
  <rect fill="#FFEBA2" height="38.46154" id="90a8ce0bf1504c9d9d56b20dad99a4a2-ao-19" stroke="#2D2D2D" width="115.38461" x="622.58973" y="227.76924"/>
  <rect fill="#FFEBA2" height="38.46154" id="90a8ce0bf1504c9d9d56b20dad99a4a2-ao-20" stroke="#2D2D2D" width="96.15385" x="767.46153" y="227.76924"/>
  <rect fill="#FFEBA2" height="20.51282" id="90a8ce0bf1504c9d9d56b20dad99a4a2-ao-21" stroke="#2D2D2D" width="741.02564" x="163.61538" y="279.05129"/>
  <rect fill="#FFEBA2" height="19.23077" id="90a8ce0bf1504c9d9d56b20dad99a4a2-ao-22" stroke="#2D2D2D" width="738.46153" x="163.61538" y="307.25642"/>
 </g>
</svg>