<svg height="638" width="722" xmlns="http://www.w3.org/2000/svg">
 <!-- Created with Image Occlusion Enhanced -->
 <g>
  <title>Labels</title>
 </g>
 <g>
  <title>Masks</title>
  <rect fill="#FFEBA2" height="26.59575" id="a4bc98d0e6964d7c9ec85bd30c869f1e-oa-1" stroke="#2D2D2D" width="114.89362" x="85.44681" y="35.40429"/>
  <rect fill="#FFEBA2" height="25.53192" id="a4bc98d0e6964d7c9ec85bd30c869f1e-oa-2" stroke="#2D2D2D" width="167.02128" x="13.10638" y="104.55323"/>
  <rect fill="#FFEBA2" height="22.34043" id="a4bc98d0e6964d7c9ec85bd30c869f1e-oa-3" stroke="#2D2D2D" width="177.65958" x="0.34042" y="212.00004"/>
  <rect fill="#FFEBA2" height="15.95745" id="a4bc98d0e6964d7c9ec85bd30c869f1e-oa-4" stroke="#2D2D2D" width="52.12766" x="80.12766" y="257.74472"/>
  <rect fill="#FFEBA2" height="15.95745" id="a4bc98d0e6964d7c9ec85bd30c869f1e-oa-5" stroke="#2D2D2D" width="84.04256" x="-1.78724" y="277.95749"/>
  <rect fill="#FFEBA2" height="21.2766" id="a4bc98d0e6964d7c9ec85bd30c869f1e-oa-6" stroke="#2D2D2D" width="92.5532" x="-3.9149" y="330.08515"/>
  <rect fill="#FFEBA2" height="21.2766" id="a4bc98d0e6964d7c9ec85bd30c869f1e-oa-7" stroke="#2D2D2D" width="78.72341" x="8.85106" y="357.74473"/>
  <rect fill="#FFEBA2" height="20.21277" id="a4bc98d0e6964d7c9ec85bd30c869f1e-oa-8" stroke="#2D2D2D" width="72.34043" x="12.04255" y="412.00005"/>
  <rect fill="#FFEBA2" height="12.76596" id="a4bc98d0e6964d7c9ec85bd30c869f1e-oa-9" stroke="#2D2D2D" width="38.29787" x="52.46808" y="444.97878"/>
  <rect fill="#FFEBA2" height="13.82979" id="a4bc98d0e6964d7c9ec85bd30c869f1e-oa-10" stroke="#2D2D2D" width="42.55319" x="64.17021" y="473.70218"/>
  <rect fill="#FFEBA2" height="21.2766" id="a4bc98d0e6964d7c9ec85bd30c869f1e-oa-11" stroke="#2D2D2D" width="95.74469" x="83.31915" y="508.80857"/>
  <rect fill="#FFEBA2" height="14.89362" id="a4bc98d0e6964d7c9ec85bd30c869f1e-oa-12" stroke="#2D2D2D" width="73.40426" x="135.44681" y="540.72346"/>
  <rect fill="#FFEBA2" height="15.95745" id="a4bc98d0e6964d7c9ec85bd30c869f1e-oa-13" stroke="#2D2D2D" width="84.04256" x="465.23406" y="47.10642"/>
  <rect fill="#FFEBA2" height="15.95745" id="a4bc98d0e6964d7c9ec85bd30c869f1e-oa-14" stroke="#2D2D2D" width="96.80852" x="465.23406" y="80.08514"/>
  <rect fill="#FFEBA2" height="19.14894" id="a4bc98d0e6964d7c9ec85bd30c869f1e-oa-15" stroke="#2D2D2D" width="94.68086" x="468.42555" y="102.42557"/>
  <rect fill="#FFEBA2" height="18.08511" id="a4bc98d0e6964d7c9ec85bd30c869f1e-oa-16" stroke="#2D2D2D" width="90.42554" x="471.61704" y="135.40429"/>
  <rect fill="#FFEBA2" height="15.95745" id="a4bc98d0e6964d7c9ec85bd30c869f1e-oa-17" stroke="#2D2D2D" width="44.68085" x="482.25534" y="160.93621"/>
  <rect fill="#FFEBA2" height="20.21277" id="a4bc98d0e6964d7c9ec85bd30c869f1e-oa-18" stroke="#2D2D2D" width="98.93618" x="485.44683" y="189.65961"/>
  <rect fill="#FFEBA2" height="18.08511" id="a4bc98d0e6964d7c9ec85bd30c869f1e-oa-19" stroke="#2D2D2D" width="95.74469" x="530.12768" y="216.25536"/>
  <rect fill="#FFEBA2" height="17.02128" id="a4bc98d0e6964d7c9ec85bd30c869f1e-oa-20" stroke="#2D2D2D" width="175.53192" x="534.383" y="239.65962"/>
  <rect fill="#FFEBA2" height="22.34043" id="a4bc98d0e6964d7c9ec85bd30c869f1e-oa-21" stroke="#2D2D2D" width="161.70214" x="554.59577" y="257.74472"/>
  <rect fill="#FFEBA2" height="21.2766" id="a4bc98d0e6964d7c9ec85bd30c869f1e-oa-22" stroke="#2D2D2D" width="222.34044" x="3.53191" y="557.74474"/>
  <rect fill="#FFEBA2" height="24.46809" id="a4bc98d0e6964d7c9ec85bd30c869f1e-oa-23" stroke="#2D2D2D" width="224.4681" x="21.61702" y="584.34049"/>
  <rect fill="#FFEBA2" height="14.89362" id="a4bc98d0e6964d7c9ec85bd30c869f1e-oa-24" stroke="#2D2D2D" width="81.9149" x="97.14893" y="610.93623"/>
 </g>
</svg>