<svg height="1077" width="901" xmlns="http://www.w3.org/2000/svg">
 <!-- Created with Image Occlusion Enhanced -->
 <g>
  <title>Labels</title>
 </g>
 <g>
  <title>Masks</title>
  <rect fill="#ffaaaa" height="26.53061" id="bed52cc4771c42d9827bec27d23d8e0a-oa-1" stroke="#2D2D2D" width="157.14286" x="209.20411" y="12.79596"/>
  <rect fill="#ffaaaa" height="55.10204" id="bed52cc4771c42d9827bec27d23d8e0a-oa-2" stroke="#2D2D2D" width="102.04082" x="158.1837" y="55.6531"/>
  <rect fill="#ffaaaa" height="51.02041" id="bed52cc4771c42d9827bec27d23d8e0a-oa-3" stroke="#2D2D2D" width="197.95919" x="31.65308" y="147.48984"/>
  <rect fill="#ffaaaa" height="51.02041" id="bed52cc4771c42d9827bec27d23d8e0a-oa-4" stroke="#2D2D2D" width="187.75511" x="19.40818" y="276.06128"/>
  <rect fill="#ffaaaa" height="46.93878" id="bed52cc4771c42d9827bec27d23d8e0a-oa-5" stroke="#2D2D2D" width="193.87756" x="23.48982" y="347.48985"/>
  <rect fill="#ffaaaa" height="20.40816" id="bed52cc4771c42d9827bec27d23d8e0a-oa-6" stroke="#2D2D2D" width="163.26531" x="1.04084" y="404.63271"/>
  <rect fill="#ffaaaa" height="48.97959" id="bed52cc4771c42d9827bec27d23d8e0a-oa-7" stroke="#2D2D2D" width="187.75511" x="27.57145" y="439.32659"/>
  <rect fill="#ffaaaa" height="44.89796" id="bed52cc4771c42d9827bec27d23d8e0a-oa-8" stroke="#2D2D2D" width="153.06123" x="33.6939" y="508.71435"/>
  <rect fill="#ffaaaa" height="22.44898" id="bed52cc4771c42d9827bec27d23d8e0a-oa-9" stroke="#2D2D2D" width="155.10205" x="39.81635" y="580.14292"/>
  <rect fill="#ffaaaa" height="55.10204" id="bed52cc4771c42d9827bec27d23d8e0a-oa-10" stroke="#2D2D2D" width="175.51021" x="21.449" y="620.95925"/>
  <rect fill="#ffaaaa" height="36.7347" id="bed52cc4771c42d9827bec27d23d8e0a-oa-11" stroke="#2D2D2D" width="116.32654" x="111.24492" y="686.26537"/>
  <rect fill="#ffaaaa" height="28.57143" id="bed52cc4771c42d9827bec27d23d8e0a-oa-12" stroke="#2D2D2D" width="236.7347" x="41.85716" y="743.40823"/>
  <rect fill="#ffaaaa" height="24.4898" id="bed52cc4771c42d9827bec27d23d8e0a-oa-13" stroke="#2D2D2D" width="144.89797" x="121.449" y="841.36742"/>
  <rect fill="#ffaaaa" height="59.18368" id="bed52cc4771c42d9827bec27d23d8e0a-oa-14" stroke="#2D2D2D" width="153.06123" x="584.71433" y="871.97967"/>
  <rect fill="#ffaaaa" height="51.02041" id="bed52cc4771c42d9827bec27d23d8e0a-oa-15" stroke="#2D2D2D" width="134.69388" x="664.30617" y="739.3266"/>
  <rect fill="#ffaaaa" height="24.4898" id="bed52cc4771c42d9827bec27d23d8e0a-oa-16" stroke="#2D2D2D" width="210.20409" x="676.55107" y="674.02048"/>
  <rect fill="#ffaaaa" height="24.4898" id="bed52cc4771c42d9827bec27d23d8e0a-oa-17" stroke="#2D2D2D" width="157.14286" x="696.95923" y="631.16333"/>
  <rect fill="#ffaaaa" height="38.77551" id="bed52cc4771c42d9827bec27d23d8e0a-oa-18" stroke="#2D2D2D" width="165.30613" x="709.20413" y="578.1021"/>
  <rect fill="#ffaaaa" height="46.93878" id="bed52cc4771c42d9827bec27d23d8e0a-oa-19" stroke="#2D2D2D" width="165.30613" x="713.28576" y="516.87761"/>
  <rect fill="#ffaaaa" height="28.57143" id="bed52cc4771c42d9827bec27d23d8e0a-oa-20" stroke="#2D2D2D" width="151.02041" x="715.32658" y="474.02047"/>
  <rect fill="#ffaaaa" height="44.89796" id="bed52cc4771c42d9827bec27d23d8e0a-oa-21" stroke="#2D2D2D" width="118.36735" x="719.40821" y="410.75516"/>
  <rect fill="#ffaaaa" height="44.89796" id="bed52cc4771c42d9827bec27d23d8e0a-oa-22" stroke="#2D2D2D" width="185.71429" x="707.16331" y="349.53067"/>
  <rect fill="#ffaaaa" height="44.89796" id="bed52cc4771c42d9827bec27d23d8e0a-oa-23" stroke="#2D2D2D" width="138.77552" x="703.08168" y="296.46944"/>
  <rect fill="#ffaaaa" height="26.53061" id="bed52cc4771c42d9827bec27d23d8e0a-oa-24" stroke="#2D2D2D" width="110.20409" x="705.1225" y="255.65311"/>
  <rect fill="#ffaaaa" height="34.69388" id="bed52cc4771c42d9827bec27d23d8e0a-oa-25" stroke="#2D2D2D" width="100" x="686.75515" y="102.59188"/>
  <rect fill="#ffaaaa" height="26.53061" id="bed52cc4771c42d9827bec27d23d8e0a-oa-26" stroke="#2D2D2D" width="140.81633" x="605.12249" y="18.91841"/>
 </g>
</svg>