<svg height="684" width="1268" xmlns="http://www.w3.org/2000/svg">
 <!-- Created with Image Occlusion Enhanced -->
 <g>
  <title>Labels</title>
 </g>
 <g>
  <title>Masks</title>
  <rect fill="#ffaaaa" height="20" id="dfd66c0fe9da48f28feef49b7c19fcc1-oa-1" stroke="#2D2D2D" width="173.33334" x="83.11117" y="402.6667"/>
  <rect fill="#ffaaaa" height="22.22222" id="dfd66c0fe9da48f28feef49b7c19fcc1-oa-2" stroke="#2D2D2D" width="173.33334" x="320.88895" y="402.6667"/>
  <rect fill="#ffaaaa" height="22.22222" id="dfd66c0fe9da48f28feef49b7c19fcc1-oa-3" stroke="#2D2D2D" width="104.44445" x="36.4445" y="596.00004"/>
  <rect fill="#ffaaaa" height="28.88889" id="dfd66c0fe9da48f28feef49b7c19fcc1-oa-4" stroke="#2D2D2D" width="164.44445" x="245.33339" y="620.44449"/>
  <rect fill="#ffaaaa" height="24.44445" id="dfd66c0fe9da48f28feef49b7c19fcc1-oa-5" stroke="#2D2D2D" width="86.66667" x="89.77783" y="373.77781"/>
  <rect fill="#ffaaaa" height="28.88889" id="dfd66c0fe9da48f28feef49b7c19fcc1-oa-6" stroke="#2D2D2D" width="86.66667" x="314.22228" y="373.77781"/>
  <rect fill="#ffaaaa" height="24.44445" id="dfd66c0fe9da48f28feef49b7c19fcc1-oa-7" stroke="#2D2D2D" width="80" x="234.22228" y="173.77781"/>
  <rect fill="#ffaaaa" height="26.66667" id="dfd66c0fe9da48f28feef49b7c19fcc1-oa-8" stroke="#2D2D2D" width="135.55556" x="432.00007" y="171.55559"/>
  <rect fill="#ffaaaa" height="102.22222" id="dfd66c0fe9da48f28feef49b7c19fcc1-oa-9" stroke="#2D2D2D" width="208.88889" x="429.77784" y="231.55559"/>
  <rect fill="#ffaaaa" height="31.11111" id="dfd66c0fe9da48f28feef49b7c19fcc1-oa-10" stroke="#2D2D2D" width="26.66667" x="792.00008" y="211.55559"/>
  <rect fill="#ffaaaa" height="35.55556" id="dfd66c0fe9da48f28feef49b7c19fcc1-oa-11" stroke="#2D2D2D" width="26.66667" x="818.66674" y="362.6667"/>
  <rect fill="#ffaaaa" height="33.33333" id="dfd66c0fe9da48f28feef49b7c19fcc1-oa-12" stroke="#2D2D2D" width="24.44445" x="789.77785" y="520.44449"/>
  <rect fill="#ffaaaa" height="28.88889" id="dfd66c0fe9da48f28feef49b7c19fcc1-oa-13" stroke="#2D2D2D" width="175.55556" x="878.66674" y="109.33336"/>
  <rect fill="#ffaaaa" height="17.77778" id="dfd66c0fe9da48f28feef49b7c19fcc1-oa-14" stroke="#2D2D2D" width="262.22223" x="889.77786" y="167.11114"/>
  <rect fill="#ffaaaa" height="44.44445" id="dfd66c0fe9da48f28feef49b7c19fcc1-oa-15" stroke="#2D2D2D" width="184.44445" x="883.11119" y="204.88892"/>
  <rect fill="#ffaaaa" height="24.44445" id="dfd66c0fe9da48f28feef49b7c19fcc1-oa-16" stroke="#2D2D2D" width="302.22223" x="885.33341" y="276.00003"/>
  <rect fill="#ffaaaa" height="44.44445" id="dfd66c0fe9da48f28feef49b7c19fcc1-oa-17" stroke="#2D2D2D" width="182.22223" x="914.2223" y="336.00004"/>
  <rect fill="#ffaaaa" height="42.22222" id="dfd66c0fe9da48f28feef49b7c19fcc1-oa-18" stroke="#2D2D2D" width="177.77778" x="914.2223" y="427.11115"/>
  <rect fill="#ffaaaa" height="120" id="dfd66c0fe9da48f28feef49b7c19fcc1-oa-19" stroke="#2D2D2D" width="177.77779" x="898.66673" y="489.33337"/>
 </g>
</svg>