<svg height="1081" width="1919.9999999999998" xmlns="http://www.w3.org/2000/svg">
 <!-- Created with Image Occlusion Enhanced -->
 <g>
  <title>Labels</title>
 </g>
 <g>
  <title>Masks</title>
  <rect fill="#FFEBA2" height="61.81818" id="e83f926fac974bbe92a6847ff8129291-oa-1" stroke="#2D2D2D" width="147.27273" x="114.54544" y="528.09094"/>
  <rect fill="#FFEBA2" height="72.72727" id="e83f926fac974bbe92a6847ff8129291-oa-2" stroke="#2D2D2D" width="116.36364" x="298.1818" y="522.6364"/>
  <rect fill="#FFEBA2" height="80" id="e83f926fac974bbe92a6847ff8129291-oa-3" stroke="#2D2D2D" width="101.81818" x="441.81817" y="520.81821"/>
  <rect fill="#FFEBA2" height="72.72727" id="e83f926fac974bbe92a6847ff8129291-oa-4" stroke="#2D2D2D" width="138.18182" x="589.0909" y="520.81821"/>
  <rect fill="#FFEBA2" height="58.18182" id="e83f926fac974bbe92a6847ff8129291-oa-5" stroke="#2D2D2D" width="140" x="778.18181" y="528.09094"/>
  <rect fill="#FFEBA2" height="34.54546" id="e83f926fac974bbe92a6847ff8129291-oa-6" stroke="#2D2D2D" width="112.72728" x="81.81816" y="755.36367"/>
  <rect fill="#FFEBA2" height="34.54546" id="e83f926fac974bbe92a6847ff8129291-oa-7" stroke="#2D2D2D" width="130.90909" x="87.27271" y="809.90913"/>
  <rect fill="#FFEBA2" height="49.09091" id="e83f926fac974bbe92a6847ff8129291-oa-8" stroke="#2D2D2D" width="132.72728" x="299.99999" y="929.90913"/>
  <rect fill="#FFEBA2" height="40" id="e83f926fac974bbe92a6847ff8129291-oa-9" stroke="#2D2D2D" width="54.54546" x="1280.00001" y="728.09095"/>
  <rect fill="#FFEBA2" height="36.36364" id="e83f926fac974bbe92a6847ff8129291-oa-10" stroke="#2D2D2D" width="60" x="1278.18182" y="789.90913"/>
  <rect fill="#FFEBA2" height="89.09091" id="e83f926fac974bbe92a6847ff8129291-oa-11" stroke="#2D2D2D" width="325.45455" x="1041.81818" y="491.72731"/>
  <rect fill="#FFEBA2" height="147.27273" id="e83f926fac974bbe92a6847ff8129291-oa-12" stroke="#2D2D2D" width="338.18183" x="1025.45455" y="142.63639"/>
  <rect fill="#FFEBA2" height="70.90909" id="e83f926fac974bbe92a6847ff8129291-oa-13" stroke="#2D2D2D" width="145.45455" x="1518.18183" y="237.18185"/>
  <rect fill="#FFEBA2" height="210.9091" id="e83f926fac974bbe92a6847ff8129291-oa-14" stroke="#2D2D2D" width="90.90909" x="1580.00001" y="506.27276"/>
  <rect fill="#FFEBA2" height="56.36364" id="e83f926fac974bbe92a6847ff8129291-oa-15" stroke="#2D2D2D" width="60" x="1714.54547" y="253.54548"/>
  <rect fill="#FFEBA2" height="158.18182" id="e83f926fac974bbe92a6847ff8129291-oa-16" stroke="#2D2D2D" width="85.45455" x="1732.72729" y="500.81821"/>
  <rect fill="#FFEBA2" height="140" id="e83f926fac974bbe92a6847ff8129291-oa-17" stroke="#2D2D2D" width="89.09091" x="1736.36365" y="688.09095"/>
 </g>
</svg>