<svg height="850" width="1396.0000000000002" xmlns="http://www.w3.org/2000/svg">
 <!-- Created with Image Occlusion Enhanced -->
 <g>
  <title>Labels</title>
 </g>
 <g>
  <title>Masks</title>
  <rect fill="#ffaaaa" height="34.14634" id="efbf9709385e4702ad97f72423c7872f-oa-1" stroke="#2D2D2D" width="246.34147" x="755.21955" y="42.68293"/>
  <rect fill="#ffaaaa" height="31.70732" id="efbf9709385e4702ad97f72423c7872f-oa-2" stroke="#2D2D2D" width="246.34147" x="767.41468" y="79.26829"/>
  <rect fill="#ffaaaa" height="26.82927" id="efbf9709385e4702ad97f72423c7872f-oa-3" stroke="#2D2D2D" width="243.90244" x="764.97565" y="118.29268"/>
  <rect fill="#ffaaaa" height="34.14634" id="efbf9709385e4702ad97f72423c7872f-oa-4" stroke="#2D2D2D" width="256.09756" x="767.41468" y="142.68293"/>
  <rect fill="#ffaaaa" height="19.5122" id="efbf9709385e4702ad97f72423c7872f-oa-5" stroke="#2D2D2D" width="180.48781" x="767.41468" y="181.70732"/>
  <rect fill="#ffaaaa" height="26.82927" id="efbf9709385e4702ad97f72423c7872f-oa-6" stroke="#2D2D2D" width="224.39025" x="772.29273" y="230.48781"/>
  <rect fill="#ffaaaa" height="26.82927" id="efbf9709385e4702ad97f72423c7872f-oa-7" stroke="#2D2D2D" width="219.5122" x="769.8537" y="269.5122"/>
  <rect fill="#ffaaaa" height="19.5122" id="efbf9709385e4702ad97f72423c7872f-oa-8" stroke="#2D2D2D" width="134.14634" x="779.6098" y="306.09756"/>
  <rect fill="#ffaaaa" height="29.26829" id="efbf9709385e4702ad97f72423c7872f-oa-9" stroke="#2D2D2D" width="160.97561" x="774.73175" y="332.92683"/>
  <rect fill="#ffaaaa" height="26.82927" id="efbf9709385e4702ad97f72423c7872f-oa-10" stroke="#2D2D2D" width="78.04878" x="774.73175" y="376.82927"/>
  <rect fill="#ffaaaa" height="36.58537" id="efbf9709385e4702ad97f72423c7872f-oa-11" stroke="#2D2D2D" width="214.63415" x="794.24395" y="462.19513"/>
  <rect fill="#ffaaaa" height="26.82927" id="efbf9709385e4702ad97f72423c7872f-oa-12" stroke="#2D2D2D" width="221.95122" x="769.8537" y="584.14635"/>
  <rect fill="#ffaaaa" height="26.82927" id="efbf9709385e4702ad97f72423c7872f-oa-13" stroke="#2D2D2D" width="217.07317" x="794.24395" y="693.90245"/>
  <rect fill="#ffaaaa" height="24.39024" id="efbf9709385e4702ad97f72423c7872f-oa-14" stroke="#2D2D2D" width="160.97561" x="823.51224" y="742.68293"/>
  <rect fill="#ffaaaa" height="31.70732" id="efbf9709385e4702ad97f72423c7872f-oa-15" stroke="#2D2D2D" width="119.5122" x="823.51224" y="779.2683"/>
  <rect fill="#ffaaaa" height="90.2439" id="efbf9709385e4702ad97f72423c7872f-oa-16" stroke="#2D2D2D" width="117.07317" x="372.29272" y="698.78049"/>
  <rect fill="#ffaaaa" height="43.90244" id="efbf9709385e4702ad97f72423c7872f-oa-17" stroke="#2D2D2D" width="124.39024" x="389.36589" y="620.73171"/>
  <rect fill="#ffaaaa" height="34.14634" id="efbf9709385e4702ad97f72423c7872f-oa-18" stroke="#2D2D2D" width="131.70732" x="379.6098" y="569.5122"/>
  <rect fill="#ffaaaa" height="95.12195" id="efbf9709385e4702ad97f72423c7872f-oa-19" stroke="#2D2D2D" width="119.5122" x="360.0976" y="445.12196"/>
  <rect fill="#ffaaaa" height="58.53659" id="efbf9709385e4702ad97f72423c7872f-oa-20" stroke="#2D2D2D" width="148.78049" x="367.41467" y="315.85366"/>
  <rect fill="#ffaaaa" height="65.85366" id="efbf9709385e4702ad97f72423c7872f-oa-21" stroke="#2D2D2D" width="139.02439" x="382.04882" y="240.2439"/>
  <rect fill="#ffaaaa" height="51.21951" id="efbf9709385e4702ad97f72423c7872f-oa-22" stroke="#2D2D2D" width="119.5122" x="386.92687" y="159.7561"/>
  <rect fill="#ffaaaa" height="65.85366" id="efbf9709385e4702ad97f72423c7872f-oa-23" stroke="#2D2D2D" width="119.5122" x="386.92687" y="81.70732"/>
 </g>
</svg>