<svg height="1896" width="2307" xmlns="http://www.w3.org/2000/svg">
 <!-- Created with Image Occlusion Enhanced -->
 <g>
  <title>Labels</title>
 </g>
 <g>
  <title>Masks</title>
  <rect fill="#FFEBA2" height="94.73684" id="f398376423924d669a3b8a6fcf05977e-oa-1" stroke="#2D2D2D" width="513.15789" x="886.42104" y="148.7368"/>
  <rect fill="#FFEBA2" height="67.10526" id="f398376423924d669a3b8a6fcf05977e-oa-2" stroke="#2D2D2D" width="556.57895" x="1439.05262" y="523.7368"/>
  <rect fill="#FFEBA2" height="63.15789" id="f398376423924d669a3b8a6fcf05977e-oa-3" stroke="#2D2D2D" width="540.78947" x="353.5263" y="527.68417"/>
  <rect fill="#FFEBA2" height="71.05263" id="f398376423924d669a3b8a6fcf05977e-oa-4" stroke="#2D2D2D" width="315.78947" x="21.94736" y="1186.89469"/>
  <rect fill="#FFEBA2" height="71.05263" id="f398376423924d669a3b8a6fcf05977e-oa-5" stroke="#2D2D2D" width="300" x="29.8421" y="1427.68417"/>
  <rect fill="#FFEBA2" height="55.26316" id="f398376423924d669a3b8a6fcf05977e-oa-6" stroke="#2D2D2D" width="213.15789" x="361.42104" y="898.7368"/>
  <rect fill="#FFEBA2" height="78.94737" id="f398376423924d669a3b8a6fcf05977e-oa-7" stroke="#2D2D2D" width="177.63158" x="625.89472" y="882.94733"/>
  <rect fill="#FFEBA2" height="78.94737" id="f398376423924d669a3b8a6fcf05977e-oa-8" stroke="#2D2D2D" width="236.8421" x="870.63157" y="886.89469"/>
  <rect fill="#FFEBA2" height="63.15789" id="f398376423924d669a3b8a6fcf05977e-oa-9" stroke="#2D2D2D" width="189.47368" x="432.47367" y="1313.21048"/>
  <rect fill="#FFEBA2" height="78.94737" id="f398376423924d669a3b8a6fcf05977e-oa-10" stroke="#2D2D2D" width="197.36842" x="657.47367" y="1317.15785"/>
  <rect fill="#FFEBA2" height="63.15789" id="f398376423924d669a3b8a6fcf05977e-oa-11" stroke="#2D2D2D" width="173.68421" x="898.26314" y="1317.15785"/>
  <rect fill="#FFEBA2" height="51.31579" id="f398376423924d669a3b8a6fcf05977e-oa-12" stroke="#2D2D2D" width="193.42105" x="1139.05262" y="1325.05259"/>
  <rect fill="#FFEBA2" height="47.36842" id="f398376423924d669a3b8a6fcf05977e-oa-13" stroke="#2D2D2D" width="272.36842" x="914.05262" y="1834.26311"/>
  <rect fill="#FFEBA2" height="51.31579" id="f398376423924d669a3b8a6fcf05977e-oa-14" stroke="#2D2D2D" width="248.68421" x="1289.05262" y="1830.31574"/>
  <rect fill="#FFEBA2" height="75" id="f398376423924d669a3b8a6fcf05977e-oa-15" stroke="#2D2D2D" width="221.05263" x="2062.73682" y="1435.5789"/>
  <rect fill="#FFEBA2" height="82.89474" id="f398376423924d669a3b8a6fcf05977e-oa-16" stroke="#2D2D2D" width="244.73684" x="1727.21051" y="1135.5789"/>
  <rect fill="#FFEBA2" height="63.15789" id="f398376423924d669a3b8a6fcf05977e-oa-17" stroke="#2D2D2D" width="225" x="2058.78946" y="1147.42101"/>
  <rect fill="#FFEBA2" height="82.89474" id="f398376423924d669a3b8a6fcf05977e-oa-18" stroke="#2D2D2D" width="363.15789" x="1849.57893" y="843.47364"/>
  <rect fill="#FFEBA2" height="102.63158" id="f398376423924d669a3b8a6fcf05977e-oa-19" stroke="#2D2D2D" width="576.31579" x="1146.94735" y="886.89469"/>
  <rect fill="#FFEBA2" height="0" id="f398376423924d669a3b8a6fcf05977e-oa-20" stroke="#2D2D2D" width="35.52632" x="1423.26314" y="946.10522"/>
 </g>
</svg>