<svg height="1236" width="1800" xmlns="http://www.w3.org/2000/svg">
 <!-- Created with Image Occlusion Enhanced -->
 <g>
  <title>Labels</title>
 </g>
 <g>
  <title>Masks</title>
  <rect fill="#FFEBA2" height="82.14286" id="fc5128bcee7747a2a0ca44dd675f8527-oa-1" stroke="#2D2D2D" width="367.85716" x="107.14283" y="6.85719"/>
  <rect fill="#FFEBA2" height="64.28572" id="fc5128bcee7747a2a0ca44dd675f8527-oa-2" stroke="#2D2D2D" width="378.57144" x="1378.57145" y="10.42862"/>
  <rect fill="#FFEBA2" height="71.42857" id="fc5128bcee7747a2a0ca44dd675f8527-oa-3" stroke="#2D2D2D" width="100" x="107.14283" y="360.42863"/>
  <rect fill="#FFEBA2" height="64.28572" id="fc5128bcee7747a2a0ca44dd675f8527-oa-4" stroke="#2D2D2D" width="103.57143" x="110.71426" y="467.57149"/>
  <rect fill="#FFEBA2" height="71.42857" id="fc5128bcee7747a2a0ca44dd675f8527-oa-5" stroke="#2D2D2D" width="250.00001" x="174.99997" y="703.28579"/>
  <rect fill="#FFEBA2" height="60.71429" id="fc5128bcee7747a2a0ca44dd675f8527-oa-6" stroke="#2D2D2D" width="214.28572" x="253.5714" y="946.14294"/>
  <rect fill="#FFEBA2" height="71.42857" id="fc5128bcee7747a2a0ca44dd675f8527-oa-7" stroke="#2D2D2D" width="142.85715" x="624.99999" y="271.14292"/>
  <rect fill="#FFEBA2" height="60.71429" id="fc5128bcee7747a2a0ca44dd675f8527-oa-8" stroke="#2D2D2D" width="214.28572" x="1053.57143" y="274.71434"/>
  <rect fill="#FFEBA2" height="50" id="fc5128bcee7747a2a0ca44dd675f8527-oa-9" stroke="#2D2D2D" width="285.7143" x="728.57142" y="389.00006"/>
  <rect fill="#FFEBA2" height="53.57143" id="fc5128bcee7747a2a0ca44dd675f8527-oa-10" stroke="#2D2D2D" width="250.00001" x="1242.85716" y="499.71435"/>
  <rect fill="#FFEBA2" height="57.14286" id="fc5128bcee7747a2a0ca44dd675f8527-oa-11" stroke="#2D2D2D" width="157.14286" x="1010.71429" y="728.28579"/>
  <rect fill="#FFEBA2" height="50" id="fc5128bcee7747a2a0ca44dd675f8527-oa-12" stroke="#2D2D2D" width="107.14286" x="935.71429" y="806.85722"/>
  <rect fill="#FFEBA2" height="57.14286" id="fc5128bcee7747a2a0ca44dd675f8527-oa-13" stroke="#2D2D2D" width="228.57144" x="1125.00001" y="803.28579"/>
  <rect fill="#FFEBA2" height="67.85715" id="fc5128bcee7747a2a0ca44dd675f8527-oa-14" stroke="#2D2D2D" width="314.28573" x="1453.57145" y="871.14294"/>
  <rect fill="#FFEBA2" height="46.42857" id="fc5128bcee7747a2a0ca44dd675f8527-oa-15" stroke="#2D2D2D" width="271.42858" x="971.42857" y="971.14294"/>
  <rect fill="#FFEBA2" height="71.42857" id="fc5128bcee7747a2a0ca44dd675f8527-oa-16" stroke="#2D2D2D" width="135.71429" x="1189.28573" y="1046.14295"/>
  <rect fill="#FFEBA2" height="75" id="fc5128bcee7747a2a0ca44dd675f8527-oa-17" stroke="#2D2D2D" width="210.71429" x="578.57142" y="1131.85723"/>
 </g>
</svg>