<svg height="262" width="933" xmlns="http://www.w3.org/2000/svg">
 <!-- Created with Image Occlusion Enhanced -->
 <g>
  <title>Labels</title>
 </g>
 <g>
  <title>Masks</title>
  <rect fill="#FFEBA2" height="18.42105" id="1cd763385ea34b71b6fac5ec46cc3f73-oa-1" stroke="#2D2D2D" width="138.15789" x="235.42102" y="68.26317"/>
  <rect fill="#FFEBA2" height="18.42105" id="1cd763385ea34b71b6fac5ec46cc3f73-oa-2" stroke="#2D2D2D" width="138.15789" x="234.76316" y="93.92105"/>
  <rect fill="#FFEBA2" height="18.42105" id="1cd763385ea34b71b6fac5ec46cc3f73-oa-3" stroke="#2D2D2D" width="138.15789" x="383.44736" y="70.23684"/>
  <rect fill="#FFEBA2" height="18.42105" id="1cd763385ea34b71b6fac5ec46cc3f73-oa-4" stroke="#2D2D2D" width="138.15789" x="384.76316" y="96.55263"/>
  <rect fill="#FFEBA2" height="18.42105" id="1cd763385ea34b71b6fac5ec46cc3f73-oa-5" stroke="#2D2D2D" width="138.15789" x="534.76316" y="67.60526"/>
  <rect fill="#FFEBA2" height="18.42105" id="1cd763385ea34b71b6fac5ec46cc3f73-oa-6" stroke="#2D2D2D" width="138.15789" x="536.07891" y="95.23684"/>
  <rect fill="#FFEBA2" height="18.42105" id="1cd763385ea34b71b6fac5ec46cc3f73-oa-7" stroke="#2D2D2D" width="138.15789" x="534.76315" y="120.23684"/>
  <rect fill="#FFEBA2" height="18.42105" id="1cd763385ea34b71b6fac5ec46cc3f73-oa-8" stroke="#2D2D2D" width="138.15789" x="380.81581" y="122.86842"/>
  <rect fill="#FFEBA2" height="18.42105" id="1cd763385ea34b71b6fac5ec46cc3f73-oa-9" stroke="#2D2D2D" width="138.15789" x="232.13159" y="121.55263"/>
  <rect fill="#FFEBA2" height="18.42105" id="1cd763385ea34b71b6fac5ec46cc3f73-oa-10" stroke="#2D2D2D" width="138.15789" x="237.39473" y="150.5"/>
  <rect fill="#FFEBA2" height="18.42105" id="1cd763385ea34b71b6fac5ec46cc3f73-oa-11" stroke="#2D2D2D" width="138.15789" x="384.76315" y="151.81579"/>
  <rect fill="#FFEBA2" height="18.42105" id="1cd763385ea34b71b6fac5ec46cc3f73-oa-12" stroke="#2D2D2D" width="138.15789" x="533.44736" y="151.81579"/>
  <rect fill="#FFEBA2" height="18.42105" id="1cd763385ea34b71b6fac5ec46cc3f73-oa-13" stroke="#2D2D2D" width="138.15789" x="534.76313" y="179.44737"/>
  <rect fill="#FFEBA2" height="18.42105" id="1cd763385ea34b71b6fac5ec46cc3f73-oa-14" stroke="#2D2D2D" width="138.15789" x="380.81579" y="178.13157"/>
  <rect fill="#FFEBA2" height="18.42105" id="1cd763385ea34b71b6fac5ec46cc3f73-oa-15" stroke="#2D2D2D" width="138.15789" x="237.39473" y="178.13157"/>
  <rect fill="#FFEBA2" height="18.42105" id="1cd763385ea34b71b6fac5ec46cc3f73-oa-16" stroke="#2D2D2D" width="138.15789" x="236.07895" y="207.07894"/>
  <rect fill="#FFEBA2" height="18.42105" id="1cd763385ea34b71b6fac5ec46cc3f73-oa-17" stroke="#2D2D2D" width="138.15789" x="378.1842" y="207.07894"/>
  <rect fill="#FFEBA2" height="18.42105" id="1cd763385ea34b71b6fac5ec46cc3f73-oa-18" stroke="#2D2D2D" width="138.15789" x="533.44736" y="208.39473"/>
  <rect fill="#FFEBA2" height="18.42105" id="1cd763385ea34b71b6fac5ec46cc3f73-oa-19" stroke="#2D2D2D" width="138.15789" x="236.07892" y="234.71053"/>
  <rect fill="#FFEBA2" height="18.42105" id="1cd763385ea34b71b6fac5ec46cc3f73-oa-20" stroke="#2D2D2D" width="138.15789" x="384.76316" y="232.07894"/>
  <rect fill="#FFEBA2" height="18.42105" id="1cd763385ea34b71b6fac5ec46cc3f73-oa-21" stroke="#2D2D2D" width="138.15789" x="534.76316" y="234.71052"/>
  <rect fill="#FFEBA2" height="18.42105" id="1cd763385ea34b71b6fac5ec46cc3f73-oa-22" stroke="#2D2D2D" width="100" x="692.65785" y="66.28947"/>
  <rect fill="#FFEBA2" height="18.42105" id="1cd763385ea34b71b6fac5ec46cc3f73-oa-23" stroke="#2D2D2D" width="100" x="690.68425" y="96.55264"/>
  <rect fill="#FFEBA2" height="18.42105" id="1cd763385ea34b71b6fac5ec46cc3f73-oa-24" stroke="#2D2D2D" width="100" x="688.05266" y="121.55263"/>
  <rect fill="#FFEBA2" height="18.42105" id="1cd763385ea34b71b6fac5ec46cc3f73-oa-25" stroke="#2D2D2D" width="100" x="690.68422" y="149.18421"/>
  <rect fill="#FFEBA2" height="18.42105" id="1cd763385ea34b71b6fac5ec46cc3f73-oa-26" stroke="#2D2D2D" width="100" x="690.68423" y="179.44737"/>
  <rect fill="#FFEBA2" height="18.42105" id="1cd763385ea34b71b6fac5ec46cc3f73-oa-27" stroke="#2D2D2D" width="100" x="695.9474" y="208.39474"/>
  <rect fill="#FFEBA2" height="18.42105" id="1cd763385ea34b71b6fac5ec46cc3f73-oa-28" stroke="#2D2D2D" width="100" x="693.31582" y="232.07894"/>
  <rect fill="#FFEBA2" height="18.42105" id="1cd763385ea34b71b6fac5ec46cc3f73-oa-29" stroke="#2D2D2D" width="100" x="817.00002" y="70.23685"/>
  <rect fill="#FFEBA2" height="18.42105" id="1cd763385ea34b71b6fac5ec46cc3f73-oa-30" stroke="#2D2D2D" width="100" x="813.05266" y="93.92105"/>
  <rect fill="#FFEBA2" height="18.42105" id="1cd763385ea34b71b6fac5ec46cc3f73-oa-31" stroke="#2D2D2D" width="100" x="814.36846" y="122.86842"/>
  <rect fill="#FFEBA2" height="18.42105" id="1cd763385ea34b71b6fac5ec46cc3f73-oa-32" stroke="#2D2D2D" width="100" x="814.36846" y="150.5"/>
  <rect fill="#FFEBA2" height="18.42105" id="1cd763385ea34b71b6fac5ec46cc3f73-oa-33" stroke="#2D2D2D" width="100" x="809.10528" y="179.44736"/>
  <rect fill="#FFEBA2" height="18.42105" id="1cd763385ea34b71b6fac5ec46cc3f73-oa-34" stroke="#2D2D2D" width="100" x="811.73687" y="205.76315"/>
  <rect fill="#FFEBA2" height="18.42105" id="1cd763385ea34b71b6fac5ec46cc3f73-oa-35" stroke="#2D2D2D" width="100" x="811.73687" y="233.39473"/>
 </g>
</svg>