<svg height="546" width="1090" xmlns="http://www.w3.org/2000/svg">
 <!-- Created with Image Occlusion Enhanced -->
 <g>
  <title>Labels</title>
 </g>
 <g>
  <title>Masks</title>
  <rect fill="#FFEBA2" height="23.63636" id="4cf2cd2daca9466cabfa65bfd4779f44-oa-1" stroke="#2D2D2D" width="200.9091" x="9.99998" y="418.54549"/>
  <rect fill="#FFEBA2" height="78.18182" id="4cf2cd2daca9466cabfa65bfd4779f44-oa-2" stroke="#2D2D2D" width="210.00001" x="15.45452" y="443.09095"/>
  <rect fill="#FFEBA2" height="45.45455" id="4cf2cd2daca9466cabfa65bfd4779f44-oa-3" stroke="#2D2D2D" width="143.63637" x="252.72726" y="475.81822"/>
  <rect fill="#FFEBA2" height="31.81818" id="4cf2cd2daca9466cabfa65bfd4779f44-oa-4" stroke="#2D2D2D" width="128.18182" x="683.63637" y="404.90913"/>
  <rect fill="#FFEBA2" height="108.18182" id="4cf2cd2daca9466cabfa65bfd4779f44-oa-5" stroke="#2D2D2D" width="190.9091" x="861.81819" y="419.45458"/>
  <rect fill="#FFEBA2" height="74.54546" id="4cf2cd2daca9466cabfa65bfd4779f44-oa-6" stroke="#2D2D2D" width="131.81819" x="169.09089" y="61.27275"/>
  <rect fill="#FFEBA2" height="25.45455" id="4cf2cd2daca9466cabfa65bfd4779f44-oa-7" stroke="#2D2D2D" width="60.90909" x="248.18181" y="147.63639"/>
  <rect fill="#FFEBA2" height="43.63637" id="4cf2cd2daca9466cabfa65bfd4779f44-oa-8" stroke="#2D2D2D" width="110" x="279.99999" y="190.36367"/>
  <rect fill="#FFEBA2" height="21.81818" id="4cf2cd2daca9466cabfa65bfd4779f44-oa-9" stroke="#2D2D2D" width="77.27273" x="313.63635" y="249.45458"/>
  <rect fill="#FFEBA2" height="46.36364" id="4cf2cd2daca9466cabfa65bfd4779f44-oa-10" stroke="#2D2D2D" width="125.45455" x="343.63636" y="84.90912"/>
  <rect fill="#FFEBA2" height="28.18182" id="4cf2cd2daca9466cabfa65bfd4779f44-oa-11" stroke="#2D2D2D" width="69.09091" x="497.27273" y="102.18184"/>
  <rect fill="#FFEBA2" height="44.54546" id="4cf2cd2daca9466cabfa65bfd4779f44-oa-12" stroke="#2D2D2D" width="181.81819" x="608.18182" y="84.90912"/>
  <rect fill="#FFEBA2" height="67.27273" id="4cf2cd2daca9466cabfa65bfd4779f44-oa-13" stroke="#2D2D2D" width="79.09091" x="746.36364" y="164.90912"/>
  <rect fill="#FFEBA2" height="42.72727" id="4cf2cd2daca9466cabfa65bfd4779f44-oa-14" stroke="#2D2D2D" width="83.63637" x="797.27274" y="88.54548"/>
  <rect fill="#FFEBA2" height="24.54546" id="4cf2cd2daca9466cabfa65bfd4779f44-oa-15" stroke="#2D2D2D" width="51.81818" x="519.09091" y="1.27275"/>
  <rect fill="#FFEBA2" height="25.45455" id="4cf2cd2daca9466cabfa65bfd4779f44-oa-16" stroke="#2D2D2D" width="157.27273" x="585.45455" y="44.90911"/>
 </g>
</svg>