<svg height="713" width="1319" xmlns="http://www.w3.org/2000/svg">
 <!-- Created with Image Occlusion Enhanced -->
 <g>
  <title>Labels</title>
 </g>
 <g>
  <title>Masks</title>
  <rect fill="#FFEBA2" height="47.05882" id="52b8266b5c5e4e4c88eb02d44a0c950e-ao-1" stroke="#2D2D2D" width="214.70589" x="4.52944" y="141.41177"/>
  <rect fill="#FFEBA2" height="35.29412" id="52b8266b5c5e4e4c88eb02d44a0c950e-ao-2" stroke="#2D2D2D" width="167.64706" x="150.11768" y="228.17648"/>
  <rect fill="#FFEBA2" height="35.29412" id="52b8266b5c5e4e4c88eb02d44a0c950e-ao-3" stroke="#2D2D2D" width="166.17647" x="153.05885" y="292.88236"/>
  <rect fill="#FFEBA2" height="35.29412" id="52b8266b5c5e4e4c88eb02d44a0c950e-ao-4" stroke="#2D2D2D" width="182.35294" x="154.52944" y="353.17648"/>
  <rect fill="#FFEBA2" height="38.23529" id="52b8266b5c5e4e4c88eb02d44a0c950e-ao-5" stroke="#2D2D2D" width="180.88236" x="556.00004" y="22.29412"/>
  <rect fill="#FFEBA2" height="41.17647" id="52b8266b5c5e4e4c88eb02d44a0c950e-ao-6" stroke="#2D2D2D" width="210.29412" x="863.35298" y="39.94118"/>
  <rect fill="#FFEBA2" height="45.58824" id="52b8266b5c5e4e4c88eb02d44a0c950e-ao-7" stroke="#2D2D2D" width="132.35294" x="625.11768" y="135.52942"/>
  <rect fill="#FFEBA2" height="36.76471" id="52b8266b5c5e4e4c88eb02d44a0c950e-ao-8" stroke="#2D2D2D" width="257.35295" x="1058.94122" y="323.76471"/>
  <rect fill="#FFEBA2" height="36.76471" id="52b8266b5c5e4e4c88eb02d44a0c950e-ao-9" stroke="#2D2D2D" width="242.64706" x="1066.29416" y="364.94118"/>
  <rect fill="#FFEBA2" height="42.64706" id="52b8266b5c5e4e4c88eb02d44a0c950e-ao-10" stroke="#2D2D2D" width="304.41177" x="241.29415" y="562.00001"/>
  <rect fill="#FFEBA2" height="45.58824" id="52b8266b5c5e4e4c88eb02d44a0c950e-ao-11" stroke="#2D2D2D" width="486.76472" x="63.35297" y="629.64707"/>
  <rect fill="#FFEBA2" height="39.70588" id="52b8266b5c5e4e4c88eb02d44a0c950e-ao-12" stroke="#2D2D2D" width="179.41177" x="1070.70593" y="453.17648"/>
  <rect fill="#FFEBA2" height="30.88235" id="52b8266b5c5e4e4c88eb02d44a0c950e-ao-13" stroke="#2D2D2D" width="210.29412" x="1078.05887" y="510.52942"/>
  <rect fill="#FFEBA2" height="29.41177" id="52b8266b5c5e4e4c88eb02d44a0c950e-ao-14" stroke="#2D2D2D" width="201.47059" x="1072.17652" y="569.35295"/>
  <rect class="qshape" fill="#FF7E7E" height="42.64706" id="52b8266b5c5e4e4c88eb02d44a0c950e-ao-15" stroke="#2D2D2D" width="104.41177" x="339.82356" y="420.82354"/>
  <rect fill="#FFEBA2" height="41.17647" id="52b8266b5c5e4e4c88eb02d44a0c950e-ao-16" stroke="#2D2D2D" width="297.05883" x="225.11768" y="491.41178"/>
 </g>
</svg>