<svg height="1080" width="840" xmlns="http://www.w3.org/2000/svg">
 <!-- Created with Image Occlusion Enhanced -->
 <g>
  <title>Labels</title>
 </g>
 <g>
  <title>Masks</title>
  <rect fill="#ffaaaa" height="22.44898" id="732b43dadf9140f0be2a5a9f0a2edeb3-oa-1" stroke="#2D2D2D" width="85.71428" x="139.59182" y="101.63263"/>
  <rect fill="#ffaaaa" height="51.02041" id="732b43dadf9140f0be2a5a9f0a2edeb3-oa-2" stroke="#2D2D2D" width="181.63265" x="59.99999" y="222.04079"/>
  <rect fill="#ffaaaa" height="26.53061" id="732b43dadf9140f0be2a5a9f0a2edeb3-oa-3" stroke="#2D2D2D" width="59.18367" x="190.61223" y="366.93874"/>
  <rect fill="#ffaaaa" height="26.53061" id="732b43dadf9140f0be2a5a9f0a2edeb3-oa-4" stroke="#2D2D2D" width="95.91837" x="172.24488" y="419.99997"/>
  <rect fill="#ffaaaa" height="24.4898" id="732b43dadf9140f0be2a5a9f0a2edeb3-oa-5" stroke="#2D2D2D" width="67.34694" x="313.06121" y="460.81629"/>
  <rect fill="#ffaaaa" height="14.28571" id="732b43dadf9140f0be2a5a9f0a2edeb3-oa-6" stroke="#2D2D2D" width="102.04081" x="486.53059" y="46.53059"/>
  <rect fill="#ffaaaa" height="12.2449" id="732b43dadf9140f0be2a5a9f0a2edeb3-oa-7" stroke="#2D2D2D" width="116.32653" x="592.65304" y="77.14283"/>
  <rect fill="#ffaaaa" height="16.32653" id="732b43dadf9140f0be2a5a9f0a2edeb3-oa-8" stroke="#2D2D2D" width="116.32653" x="608.97957" y="103.67344"/>
  <rect fill="#ffaaaa" height="51.02041" id="732b43dadf9140f0be2a5a9f0a2edeb3-oa-9" stroke="#2D2D2D" width="120.40816" x="643.67344" y="132.24487"/>
  <rect fill="#ffaaaa" height="48.97959" id="732b43dadf9140f0be2a5a9f0a2edeb3-oa-10" stroke="#2D2D2D" width="126.53061" x="666.12242" y="199.59181"/>
  <rect fill="#ffaaaa" height="20.40816" id="732b43dadf9140f0be2a5a9f0a2edeb3-oa-11" stroke="#2D2D2D" width="155.10204" x="668.16324" y="252.65303"/>
  <rect fill="#ffaaaa" height="18.36735" id="732b43dadf9140f0be2a5a9f0a2edeb3-oa-12" stroke="#2D2D2D" width="87.7551" x="670.20406" y="283.26528"/>
  <rect fill="#ffaaaa" height="63.2653" id="732b43dadf9140f0be2a5a9f0a2edeb3-oa-13" stroke="#2D2D2D" width="122.44898" x="672.24487" y="313.87752"/>
  <rect fill="#ffaaaa" height="18.36735" id="732b43dadf9140f0be2a5a9f0a2edeb3-oa-14" stroke="#2D2D2D" width="87.7551" x="668.16324" y="391.42854"/>
  <rect fill="#ffaaaa" height="26.53061" id="732b43dadf9140f0be2a5a9f0a2edeb3-oa-15" stroke="#2D2D2D" width="93.87755" x="688.5714" y="585.30609"/>
  <rect fill="#ffaaaa" height="26.53061" id="732b43dadf9140f0be2a5a9f0a2edeb3-oa-16" stroke="#2D2D2D" width="71.42857" x="580.40814" y="619.99996"/>
  <rect fill="#ffaaaa" height="20.40816" id="732b43dadf9140f0be2a5a9f0a2edeb3-oa-17" stroke="#2D2D2D" width="95.91837" x="433.46937" y="642.44894"/>
  <rect fill="#ffaaaa" height="20.40816" id="732b43dadf9140f0be2a5a9f0a2edeb3-oa-18" stroke="#2D2D2D" width="85.71428" x="413.0612" y="689.38772"/>
  <rect fill="#ffaaaa" height="16.32653" id="732b43dadf9140f0be2a5a9f0a2edeb3-oa-19" stroke="#2D2D2D" width="191.83673" x="421.22447" y="711.8367"/>
  <rect fill="#ffaaaa" height="16.32653" id="732b43dadf9140f0be2a5a9f0a2edeb3-oa-20" stroke="#2D2D2D" width="89.79592" x="400.81631" y="750.61221"/>
  <rect fill="#ffaaaa" height="18.36735" id="732b43dadf9140f0be2a5a9f0a2edeb3-oa-21" stroke="#2D2D2D" width="140.81632" x="402.85712" y="779.18363"/>
  <rect fill="#ffaaaa" height="22.44898" id="732b43dadf9140f0be2a5a9f0a2edeb3-oa-22" stroke="#2D2D2D" width="85.71428" x="398.77549" y="830.20404"/>
  <rect fill="#ffaaaa" height="22.44898" id="732b43dadf9140f0be2a5a9f0a2edeb3-oa-23" stroke="#2D2D2D" width="102.04081" x="386.53059" y="875.102"/>
  <rect fill="#ffaaaa" height="20.40816" id="732b43dadf9140f0be2a5a9f0a2edeb3-oa-24" stroke="#2D2D2D" width="71.42857" x="374.28569" y="975.102"/>
  <rect fill="#ffaaaa" height="22.44898" id="732b43dadf9140f0be2a5a9f0a2edeb3-oa-25" stroke="#2D2D2D" width="79.59184" x="100.81631" y="805.71425"/>
  <rect fill="#ffaaaa" height="20.40816" id="732b43dadf9140f0be2a5a9f0a2edeb3-oa-26" stroke="#2D2D2D" width="148.97959" x="31.42856" y="750.61221"/>
  <rect fill="#ffaaaa" height="28.57143" id="732b43dadf9140f0be2a5a9f0a2edeb3-oa-27" stroke="#2D2D2D" width="153.06122" x="17.14284" y="707.75506"/>
  <rect fill="#ffaaaa" height="24.4898" id="732b43dadf9140f0be2a5a9f0a2edeb3-oa-28" stroke="#2D2D2D" width="95.91837" x="53.87754" y="662.85711"/>
  <rect fill="#ffaaaa" height="18.36735" id="732b43dadf9140f0be2a5a9f0a2edeb3-oa-29" stroke="#2D2D2D" width="136.73469" x="15.10203" y="636.32649"/>
 </g>
</svg>