<svg height="246" width="568" xmlns="http://www.w3.org/2000/svg">
 <!-- Created with Image Occlusion Enhanced -->
 <g>
  <title>Labels</title>
 </g>
 <g>
  <title>Masks</title>
  <rect fill="#FFEBA2" height="28.75" id="850cc72d8c484198bd52ebb59d366f59-ao-1" stroke="#2D2D2D" stroke-dasharray="null" stroke-linecap="null" stroke-linejoin="null" width="274.375" x="5.75001" y="74.62499"/>
  <rect fill="#FFEBA2" height="29.375" id="850cc72d8c484198bd52ebb59d366f59-ao-2" stroke="#2D2D2D" stroke-dasharray="null" stroke-linecap="null" stroke-linejoin="null" width="266.25" x="292.62501" y="72.74999"/>
  <path d="m122.62501,125.24999l122.99999,0.37501l0.625,46.25l-240.625,0l0.625,-32.5l114.375,0l2.00001,-14.12501z" fill="#FFEBA2" id="850cc72d8c484198bd52ebb59d366f59-ao-3" stroke="#2D2D2D" stroke-dasharray="null" stroke-linecap="null" stroke-linejoin="null" stroke-width="null"/>
  <path d="m360.75,125.87499l186.125,-0.87499c0,0 1.375,34 1.375,34c0,0 -257.5,0.625 -257.625,0.375c-0.125,-0.25 0.125,-17.875 0,-18.125c-0.125,-0.25 68.875,-1.625 68.75,-1.875c-0.125,-0.25 1.375,-13.50001 1.375,-13.50001z" fill="#FFEBA2" id="850cc72d8c484198bd52ebb59d366f59-ao-4" stroke="#2D2D2D" stroke-dasharray="null" stroke-linecap="null" stroke-linejoin="null" stroke-width="null"/>
  <rect fill="#FFEBA2" height="13.75" id="850cc72d8c484198bd52ebb59d366f59-ao-5" stroke="#2D2D2D" stroke-dasharray="null" stroke-linecap="null" stroke-linejoin="null" width="212.5" x="18.87501" y="210.875"/>
  <rect class="qshape" fill="#FF7E7E" height="15" id="850cc72d8c484198bd52ebb59d366f59-ao-6" stroke="#2D2D2D" stroke-dasharray="null" stroke-linecap="null" stroke-linejoin="null" width="206.875" x="304.50001" y="209.62499"/>
  <path d="m7.00001,177.125l67.99999,-1.5l0,17.5l44.375,-1.25c0,0 -0.49999,-17.25 -0.49999,-16.625c0,0.625 127.49999,1.25 127.37499,1c-0.125,-0.25 -4.875,29 -5,28.75c-0.125,-0.25 -234.87499,1.5 -235,1.25c-0.12501,-0.25 0.75001,-29.125 0.75001,-29.125z" fill="#FFEBA2" id="850cc72d8c484198bd52ebb59d366f59-ao-7" stroke="#2D2D2D" stroke-dasharray="null" stroke-linecap="null" stroke-linejoin="null" stroke-width="null"/>
  <path d="m290.75,177.125c-0.625,0 85,-0.625 84.875,-0.875c-0.125,-0.25 2.625,15.25 2.5,15c-0.125,-0.25 40.75,-1 40.625,-1.25c-0.125,-0.25 1.375,-15.375 1.25,-15.625c-0.125,-0.25 109.5,1.5 109.375,1.25c-0.125,-0.25 0.75,29.625 0.625,29.375c-0.125,-0.25 -238.625,2.125 -238.75,1.875c-0.125,-0.25 -0.5,-29.75 -0.5,-29.75z" fill="#FFEBA2" id="850cc72d8c484198bd52ebb59d366f59-ao-8" stroke="#2D2D2D" stroke-dasharray="null" stroke-linecap="null" stroke-linejoin="null" stroke-width="null"/>
 </g>
</svg>