<svg height="706" width="1090" xmlns="http://www.w3.org/2000/svg">
 <!-- Created with Image Occlusion Enhanced -->
 <g>
  <title>Labels</title>
 </g>
 <g>
  <title>Masks</title>
  <rect fill="#FFEBA2" height="37.125" id="8cf7bb132f534ba8ba5d8dfe21dd24e6-oa-1" stroke="#2D2D2D" width="187.875" x="441.12495" y="44.37502"/>
  <rect fill="#FFEBA2" height="36" id="8cf7bb132f534ba8ba5d8dfe21dd24e6-oa-2" stroke="#2D2D2D" width="167.625" x="77.74994" y="162.50002"/>
  <rect fill="#FFEBA2" height="36" id="8cf7bb132f534ba8ba5d8dfe21dd24e6-oa-3" stroke="#2D2D2D" width="167.625" x="446.18751" y="141.125"/>
  <rect fill="#FFEBA2" height="36" id="8cf7bb132f534ba8ba5d8dfe21dd24e6-oa-4" stroke="#2D2D2D" width="167.625" x="704.93751" y="141.125"/>
  <rect fill="#FFEBA2" height="28.125" id="8cf7bb132f534ba8ba5d8dfe21dd24e6-oa-5" stroke="#2D2D2D" width="100.125" x="8.56251" y="251.375"/>
  <rect fill="#FFEBA2" height="24.75" id="8cf7bb132f534ba8ba5d8dfe21dd24e6-oa-6" stroke="#2D2D2D" width="93.375" x="185.1875" y="247.4375"/>
  <rect fill="#FFEBA2" height="33.75" id="8cf7bb132f534ba8ba5d8dfe21dd24e6-oa-7" stroke="#2D2D2D" width="149.625" x="170.56251" y="273.875"/>
  <rect fill="#FFEBA2" height="18" id="8cf7bb132f534ba8ba5d8dfe21dd24e6-oa-8" stroke="#2D2D2D" width="163.125" x="152.56251" y="318.875"/>
  <rect fill="#FFEBA2" height="63" id="8cf7bb132f534ba8ba5d8dfe21dd24e6-oa-9" stroke="#2D2D2D" width="165.375" x="78.31251" y="375.12501"/>
  <rect fill="#FFEBA2" height="19.125" id="8cf7bb132f534ba8ba5d8dfe21dd24e6-oa-10" stroke="#2D2D2D" width="173.25001" x="52.43751" y="467.375"/>
  <rect fill="#FFEBA2" height="20.25" id="8cf7bb132f534ba8ba5d8dfe21dd24e6-oa-11" stroke="#2D2D2D" width="106.87502" x="17.00001" y="295.8125"/>
  <rect fill="#FFEBA2" height="36" id="8cf7bb132f534ba8ba5d8dfe21dd24e6-oa-12" stroke="#2D2D2D" width="167.625" x="535.06251" y="262.625"/>
  <rect fill="#FFEBA2" height="50.625" id="8cf7bb132f534ba8ba5d8dfe21dd24e6-oa-13" stroke="#2D2D2D" width="129.375" x="378.6875" y="263.75"/>
  <rect fill="#FFEBA2" height="76.50001" id="8cf7bb132f534ba8ba5d8dfe21dd24e6-oa-14" stroke="#2D2D2D" width="124.87501" x="377.5625" y="319.43751"/>
  <rect fill="#FFEBA2" height="76.50001" id="8cf7bb132f534ba8ba5d8dfe21dd24e6-oa-15" stroke="#2D2D2D" width="124.87501" x="365.1875" y="401"/>
  <rect fill="#FFEBA2" height="28.12501" id="8cf7bb132f534ba8ba5d8dfe21dd24e6-oa-16" stroke="#2D2D2D" width="61.87501" x="655.4375" y="460.625"/>
  <rect fill="#FFEBA2" height="28.12501" id="8cf7bb132f534ba8ba5d8dfe21dd24e6-oa-17" stroke="#2D2D2D" width="61.87501" x="523.8125" y="462.3125"/>
  <rect fill="#FFEBA2" height="40.50001" id="8cf7bb132f534ba8ba5d8dfe21dd24e6-oa-18" stroke="#2D2D2D" width="160.87501" x="431.5625" y="520.8125"/>
  <rect fill="#FFEBA2" height="22.50001" id="8cf7bb132f534ba8ba5d8dfe21dd24e6-oa-19" stroke="#2D2D2D" width="77.62501" x="708.3125" y="516.3125"/>
  <rect fill="#FFEBA2" height="19.125" id="8cf7bb132f534ba8ba5d8dfe21dd24e6-oa-20" stroke="#2D2D2D" width="47.25001" x="875.9375" y="507.875"/>
  <rect fill="#FFEBA2" height="22.5" id="8cf7bb132f534ba8ba5d8dfe21dd24e6-oa-21" stroke="#2D2D2D" width="102.37501" x="769.625" y="538.8125"/>
  <rect fill="#FFEBA2" height="29.25" id="8cf7bb132f534ba8ba5d8dfe21dd24e6-oa-22" stroke="#2D2D2D" width="186.75002" x="766.81249" y="566.375"/>
  <rect fill="#FFEBA2" height="86.625" id="8cf7bb132f534ba8ba5d8dfe21dd24e6-oa-23" stroke="#2D2D2D" width="141.75001" x="731.375" y="208.0625"/>
  <rect fill="#FFEBA2" height="36" id="8cf7bb132f534ba8ba5d8dfe21dd24e6-oa-24" stroke="#2D2D2D" width="96.75001" x="778.625" y="296.9375"/>
  <rect fill="#FFEBA2" height="43.87501" id="8cf7bb132f534ba8ba5d8dfe21dd24e6-oa-25" stroke="#2D2D2D" width="187.87502" x="785.37499" y="340.25"/>
  <rect fill="#FFEBA2" height="63" id="8cf7bb132f534ba8ba5d8dfe21dd24e6-oa-26" stroke="#2D2D2D" width="211.50001" x="706.62499" y="627.125"/>
 </g>
</svg>