<svg height="778" width="659" xmlns="http://www.w3.org/2000/svg">
 <!-- Created with Image Occlusion Enhanced -->
 <g>
  <title>Labels</title>
 </g>
 <g>
  <title>Masks</title>
  <rect fill="#FFEBA2" height="40.35326" id="b15456dcdc954c9fa594579ece6d89db-oa-1" stroke="#2D2D2D" width="191.67799" x="115.96603" y="54.74454"/>
  <rect fill="#FFEBA2" height="41.27038" id="b15456dcdc954c9fa594579ece6d89db-oa-2" stroke="#2D2D2D" width="35.76766" x="533.25543" y="51.99318"/>
  <rect fill="#FFEBA2" height="16.50815" id="b15456dcdc954c9fa594579ece6d89db-oa-3" stroke="#2D2D2D" width="59.61277" x="178.33016" y="101.51764"/>
  <rect fill="#FFEBA2" height="15.59103" id="b15456dcdc954c9fa594579ece6d89db-oa-4" stroke="#2D2D2D" width="34.85054" x="537.84103" y="102.43476"/>
  <rect fill="#FFEBA2" height="16.50815" id="b15456dcdc954c9fa594579ece6d89db-oa-5" stroke="#2D2D2D" width="71.53533" x="241.61141" y="101.51764"/>
  <rect fill="#FFEBA2" height="15.59103" id="b15456dcdc954c9fa594579ece6d89db-oa-6" stroke="#2D2D2D" width="94.46331" x="537.84103" y="120.77715"/>
  <rect fill="#FFEBA2" height="17.42527" id="b15456dcdc954c9fa594579ece6d89db-oa-7" stroke="#2D2D2D" width="36.68478" x="355.33423" y="101.51764"/>
  <rect fill="#FFEBA2" height="17.42527" id="b15456dcdc954c9fa594579ece6d89db-oa-8" stroke="#2D2D2D" width="33.0163" x="575.44293" y="136.36818"/>
  <rect fill="#FFEBA2" height="26.59647" id="b15456dcdc954c9fa594579ece6d89db-oa-9" stroke="#2D2D2D" width="68.78397" x="455.30027" y="100.60052"/>
  <rect fill="#FFEBA2" height="13.75679" id="b15456dcdc954c9fa594579ece6d89db-oa-10" stroke="#2D2D2D" width="41.27038" x="600.20516" y="153.79345"/>
  <rect fill="#FFEBA2" height="16.50815" id="b15456dcdc954c9fa594579ece6d89db-oa-11" stroke="#2D2D2D" width="58.69565" x="585.53124" y="169.38449"/>
  <rect fill="#FFEBA2" height="25.67935" id="b15456dcdc954c9fa594579ece6d89db-oa-12" stroke="#2D2D2D" width="205.43478" x="171.91032" y="118.94291"/>
  <rect fill="#FFEBA2" height="17.42527" id="b15456dcdc954c9fa594579ece6d89db-oa-13" stroke="#2D2D2D" width="44.93886" x="573.60869" y="195.06383"/>
  <rect fill="#FFEBA2" height="18.34239" id="b15456dcdc954c9fa594579ece6d89db-oa-14" stroke="#2D2D2D" width="88.04348" x="536.00679" y="213.40623"/>
  <rect fill="#FFEBA2" height="16.50815" id="b15456dcdc954c9fa594579ece6d89db-oa-15" stroke="#2D2D2D" width="154.07609" x="157.23641" y="194.14671"/>
  <rect fill="#FFEBA2" height="20.17663" id="b15456dcdc954c9fa594579ece6d89db-oa-16" stroke="#2D2D2D" width="73.36956" x="331.48913" y="191.39536"/>
  <rect fill="#FFEBA2" height="19.25951" id="b15456dcdc954c9fa594579ece6d89db-oa-17" stroke="#2D2D2D" width="50.44158" x="414.94701" y="192.31248"/>
  <rect fill="#FFEBA2" height="24.76223" id="b15456dcdc954c9fa594579ece6d89db-oa-18" stroke="#2D2D2D" width="167.83288" x="302.1413" y="212.48911"/>
  <rect fill="#FFEBA2" height="32.09918" id="b15456dcdc954c9fa594579ece6d89db-oa-19" stroke="#2D2D2D" width="128.39674" x="115.04891" y="239.08557"/>
  <rect fill="#FFEBA2" height="34.85054" id="b15456dcdc954c9fa594579ece6d89db-oa-20" stroke="#2D2D2D" width="148.57337" x="251.69972" y="238.16845"/>
  <rect fill="#FFEBA2" height="32.09918" id="b15456dcdc954c9fa594579ece6d89db-oa-21" stroke="#2D2D2D" width="124.72826" x="404.85869" y="239.08557"/>
  <rect fill="#FFEBA2" height="33.93342" id="b15456dcdc954c9fa594579ece6d89db-oa-22" stroke="#2D2D2D" width="110.05435" x="538.75815" y="236.33421"/>
  <rect fill="#FFEBA2" height="32.09918" id="b15456dcdc954c9fa594579ece6d89db-oa-23" stroke="#2D2D2D" width="124.72826" x="119.63449" y="277.14606"/>
  <rect fill="#FFEBA2" height="32.09918" id="b15456dcdc954c9fa594579ece6d89db-oa-24" stroke="#2D2D2D" width="135.73369" x="255.36821" y="278.06318"/>
  <rect fill="#FFEBA2" height="32.09918" id="b15456dcdc954c9fa594579ece6d89db-oa-25" stroke="#2D2D2D" width="135.73369" x="400.2731" y="277.14607"/>
  <rect fill="#FFEBA2" height="50.44157" id="b15456dcdc954c9fa594579ece6d89db-oa-26" stroke="#2D2D2D" width="114.63994" x="120.55164" y="331.2561"/>
  <rect fill="#FFEBA2" height="50.44157" id="b15456dcdc954c9fa594579ece6d89db-oa-27" stroke="#2D2D2D" width="114.63994" x="253.99253" y="332.17323"/>
  <rect fill="#FFEBA2" height="50.44157" id="b15456dcdc954c9fa594579ece6d89db-oa-28" stroke="#2D2D2D" width="114.63994" x="407.1515" y="334.00749"/>
  <rect fill="#FFEBA2" height="50.44157" id="b15456dcdc954c9fa594579ece6d89db-oa-29" stroke="#2D2D2D" width="114.63994" x="538.29962" y="335.84172"/>
  <rect fill="#FFEBA2" height="36.68478" id="b15456dcdc954c9fa594579ece6d89db-oa-30" stroke="#2D2D2D" width="114.63994" x="121.9273" y="392.70312"/>
  <rect fill="#FFEBA2" height="34.85054" id="b15456dcdc954c9fa594579ece6d89db-oa-31" stroke="#2D2D2D" width="114.63994" x="253.0754" y="391.78599"/>
  <rect fill="#FFEBA2" height="34.85054" id="b15456dcdc954c9fa594579ece6d89db-oa-32" stroke="#2D2D2D" width="114.63994" x="407.1515" y="392.24457"/>
  <rect fill="#FFEBA2" height="34.85054" id="b15456dcdc954c9fa594579ece6d89db-oa-33" stroke="#2D2D2D" width="114.63994" x="538.29962" y="393.16169"/>
  <rect fill="#FFEBA2" height="34.85054" id="b15456dcdc954c9fa594579ece6d89db-oa-34" stroke="#2D2D2D" width="114.63994" x="119.17594" y="438.10055"/>
  <rect fill="#FFEBA2" height="34.85054" id="b15456dcdc954c9fa594579ece6d89db-oa-35" stroke="#2D2D2D" width="114.63994" x="250.32405" y="437.18342"/>
  <rect fill="#FFEBA2" height="34.85054" id="b15456dcdc954c9fa594579ece6d89db-oa-36" stroke="#2D2D2D" width="114.63994" x="407.1515" y="437.18343"/>
  <rect fill="#FFEBA2" height="34.85054" id="b15456dcdc954c9fa594579ece6d89db-oa-37" stroke="#2D2D2D" width="114.63994" x="538.29961" y="438.10054"/>
  <rect fill="#FFEBA2" height="121.9769" id="b15456dcdc954c9fa594579ece6d89db-oa-38" stroke="#2D2D2D" width="120.14266" x="118.25883" y="482.12225"/>
  <rect fill="#FFEBA2" height="121.9769" id="b15456dcdc954c9fa594579ece6d89db-oa-39" stroke="#2D2D2D" width="120.14266" x="253.99252" y="488.08357"/>
  <rect fill="#FFEBA2" height="121.9769" id="b15456dcdc954c9fa594579ece6d89db-oa-40" stroke="#2D2D2D" width="120.14266" x="406.23439" y="483.49798"/>
  <rect fill="#FFEBA2" height="121.9769" id="b15456dcdc954c9fa594579ece6d89db-oa-41" stroke="#2D2D2D" width="120.14266" x="533.714" y="483.49796"/>
  <rect fill="#FFEBA2" height="79.7894" id="b15456dcdc954c9fa594579ece6d89db-oa-42" stroke="#2D2D2D" width="118.30841" x="118.25883" y="619.69025"/>
  <rect fill="#FFEBA2" height="79.7894" id="b15456dcdc954c9fa594579ece6d89db-oa-43" stroke="#2D2D2D" width="118.30841" x="256.74389" y="623.81726"/>
  <rect fill="#FFEBA2" height="79.7894" id="b15456dcdc954c9fa594579ece6d89db-oa-44" stroke="#2D2D2D" width="118.30841" x="408.98573" y="626.56861"/>
  <rect fill="#FFEBA2" height="79.7894" id="b15456dcdc954c9fa594579ece6d89db-oa-45" stroke="#2D2D2D" width="118.30841" x="537.38249" y="625.65149"/>
  <rect fill="#FFEBA2" height="35.76767" id="b15456dcdc954c9fa594579ece6d89db-oa-46" stroke="#2D2D2D" width="118.30841" x="118.25882" y="713.69499"/>
  <rect fill="#FFEBA2" height="35.76767" id="b15456dcdc954c9fa594579ece6d89db-oa-47" stroke="#2D2D2D" width="118.30841" x="254.90965" y="715.52921"/>
  <rect fill="#FFEBA2" height="35.76767" id="b15456dcdc954c9fa594579ece6d89db-oa-48" stroke="#2D2D2D" width="118.30841" x="406.23437" y="712.77783"/>
  <rect fill="#FFEBA2" height="35.76767" id="b15456dcdc954c9fa594579ece6d89db-oa-49" stroke="#2D2D2D" width="118.30841" x="538.29959" y="713.69498"/>
 </g>
</svg>