<svg height="915" width="812" xmlns="http://www.w3.org/2000/svg">
 <!-- Created with Image Occlusion Enhanced -->
 <g>
  <title>Labels</title>
 </g>
 <g>
  <title>Masks</title>
  <rect fill="#FFEBA2" height="28.30189" id="c99fc06dd3dc46d288b58f5bc1d74485-ao-1" stroke="#2D2D2D" width="37.73585" x="306.86796" y="252.92449"/>
  <rect fill="#FFEBA2" height="30.18868" id="c99fc06dd3dc46d288b58f5bc1d74485-ao-2" stroke="#2D2D2D" width="32.07547" x="338.94344" y="396.32072"/>
  <rect fill="#FFEBA2" height="20.75472" id="c99fc06dd3dc46d288b58f5bc1d74485-ao-3" stroke="#2D2D2D" width="32.07547" x="350.26419" y="509.52827"/>
  <rect fill="#FFEBA2" height="24.5283" id="c99fc06dd3dc46d288b58f5bc1d74485-ao-4" stroke="#2D2D2D" width="26.4151" x="288.00004" y="426.5094"/>
  <rect fill="#FFEBA2" height="32.07547" id="c99fc06dd3dc46d288b58f5bc1d74485-ao-5" stroke="#2D2D2D" width="30.18868" x="33.28305" y="311.41505"/>
  <rect fill="#FFEBA2" height="39.62264" id="c99fc06dd3dc46d288b58f5bc1d74485-ao-6" stroke="#2D2D2D" width="35.84906" x="42.71701" y="249.1509"/>
  <rect fill="#FFEBA2" height="26.4151" id="c99fc06dd3dc46d288b58f5bc1d74485-ao-7" stroke="#2D2D2D" width="20.75472" x="488.00004" y="256.69807"/>
  <rect fill="#FFEBA2" height="20.75472" id="c99fc06dd3dc46d288b58f5bc1d74485-ao-8" stroke="#2D2D2D" width="28.30189" x="452.15099" y="396.32072"/>
  <rect fill="#FFEBA2" height="24.5283" id="c99fc06dd3dc46d288b58f5bc1d74485-ao-9" stroke="#2D2D2D" width="24.5283" x="440.83023" y="503.86789"/>
  <rect fill="#FFEBA2" height="20.75472" id="c99fc06dd3dc46d288b58f5bc1d74485-ao-10" stroke="#2D2D2D" width="24.5283" x="503.09438" y="430.28298"/>
  <rect fill="#FFEBA2" height="24.5283" id="c99fc06dd3dc46d288b58f5bc1d74485-ao-11" stroke="#2D2D2D" width="35.84906" x="752.151" y="339.71694"/>
  <rect fill="#FFEBA2" height="30.18868" id="c99fc06dd3dc46d288b58f5bc1d74485-ao-12" stroke="#2D2D2D" width="37.73585" x="742.71703" y="258.58486"/>
  <rect fill="#FFEBA2" height="33.96227" id="c99fc06dd3dc46d288b58f5bc1d74485-ao-13" stroke="#2D2D2D" width="35.84906" x="686.11326" y="626.50941"/>
  <rect fill="#FFEBA2" height="24.5283" id="c99fc06dd3dc46d288b58f5bc1d74485-ao-14" stroke="#2D2D2D" width="37.73585" x="669.13213" y="751.03771"/>
  <rect fill="#FFEBA2" height="22.64151" id="c99fc06dd3dc46d288b58f5bc1d74485-ao-15" stroke="#2D2D2D" width="20.75472" x="629.50948" y="851.03771"/>
  <rect fill="#FFEBA2" height="18.86793" id="c99fc06dd3dc46d288b58f5bc1d74485-ao-16" stroke="#2D2D2D" width="16.98113" x="654.03779" y="701.98111"/>
  <rect fill="#FFEBA2" height="24.5283" id="c99fc06dd3dc46d288b58f5bc1d74485-ao-17" stroke="#2D2D2D" width="20.75472" x="155.92456" y="532.16978"/>
  <rect fill="#FFEBA2" height="22.64151" id="c99fc06dd3dc46d288b58f5bc1d74485-ao-18" stroke="#2D2D2D" width="18.86793" x="154.03777" y="620.84903"/>
  <rect fill="#FFEBA2" height="20.75472" id="c99fc06dd3dc46d288b58f5bc1d74485-ao-19" stroke="#2D2D2D" width="16.98113" x="176.67928" y="843.49054"/>
  <rect fill="#FFEBA2" height="28.30189" id="c99fc06dd3dc46d288b58f5bc1d74485-ao-20" stroke="#2D2D2D" width="20.75472" x="129.50947" y="741.60375"/>
 </g>
</svg>