<svg height="622" width="1396.0000000000002" xmlns="http://www.w3.org/2000/svg">
 <!-- Created with Image Occlusion Enhanced -->
 <g>
  <title>Labels</title>
 </g>
 <g>
  <title>Masks</title>
  <rect fill="#ffaaaa" height="31.70732" id="e775f41c678a447093ef2dc568dc10cd-oa-1" stroke="#2D2D2D" width="117.07317" x="496.68297" y="9.70728"/>
  <rect fill="#ffaaaa" height="34.14634" id="e775f41c678a447093ef2dc568dc10cd-oa-2" stroke="#2D2D2D" width="175.60976" x="499.12199" y="58.48776"/>
  <rect fill="#ffaaaa" height="29.26829" id="e775f41c678a447093ef2dc568dc10cd-oa-3" stroke="#2D2D2D" width="200" x="494.24394" y="119.46337"/>
  <rect fill="#ffaaaa" height="36.58537" id="e775f41c678a447093ef2dc568dc10cd-oa-4" stroke="#2D2D2D" width="202.43903" x="501.56102" y="177.99996"/>
  <rect fill="#ffaaaa" height="31.70732" id="e775f41c678a447093ef2dc568dc10cd-oa-5" stroke="#2D2D2D" width="219.5122" x="484.48784" y="241.4146"/>
  <rect fill="#ffaaaa" height="58.53659" id="e775f41c678a447093ef2dc568dc10cd-oa-6" stroke="#2D2D2D" width="185.36586" x="477.17077" y="302.39021"/>
  <rect fill="#ffaaaa" height="39.02439" id="e775f41c678a447093ef2dc568dc10cd-oa-7" stroke="#2D2D2D" width="175.60976" x="462.53663" y="377.99996"/>
  <rect fill="#ffaaaa" height="65.85366" id="e775f41c678a447093ef2dc568dc10cd-oa-8" stroke="#2D2D2D" width="165.85366" x="452.78053" y="436.53655"/>
  <rect fill="#ffaaaa" height="26.82927" id="e775f41c678a447093ef2dc568dc10cd-oa-9" stroke="#2D2D2D" width="165.85366" x="445.46345" y="519.46338"/>
  <rect fill="#ffaaaa" height="63.41463" id="e775f41c678a447093ef2dc568dc10cd-oa-10" stroke="#2D2D2D" width="85.36585" x="1060.09761" y="363.36582"/>
  <rect fill="#ffaaaa" height="53.65854" id="e775f41c678a447093ef2dc568dc10cd-oa-11" stroke="#2D2D2D" width="90.2439" x="1062.53663" y="434.09752"/>
  <rect fill="#ffaaaa" height="51.21951" id="e775f41c678a447093ef2dc568dc10cd-oa-12" stroke="#2D2D2D" width="129.26829" x="1184.48785" y="397.51216"/>
  <rect fill="#ffaaaa" height="51.21951" id="e775f41c678a447093ef2dc568dc10cd-oa-13" stroke="#2D2D2D" width="248.78049" x="1094.24395" y="263.36582"/>
  <rect fill="#ffaaaa" height="56.09756" id="e775f41c678a447093ef2dc568dc10cd-oa-14" stroke="#2D2D2D" width="221.95122" x="1094.24395" y="170.68289"/>
  <rect fill="#ffaaaa" height="97.56098" id="e775f41c678a447093ef2dc568dc10cd-oa-15" stroke="#2D2D2D" width="251.21951" x="1086.92687" y="21.9024"/>
 </g>
</svg>