<svg height="567" width="647" xmlns="http://www.w3.org/2000/svg">
 <!-- Created with Image Occlusion Enhanced -->
 <g>
  <title>Labels</title>
 </g>
 <g>
  <title>Masks</title>
  <rect fill="#FFEBA2" height="16.98113" id="ebc5fab0795043fb9da738f314d71195-aa-1" stroke="#2D2D2D" width="100.47169" x="146.16035" y="156.82077"/>
  <rect fill="#FFEBA2" height="16.98113" id="ebc5fab0795043fb9da738f314d71195-aa-2" stroke="#2D2D2D" width="100.47169" x="263.6132" y="156.82077"/>
  <rect fill="#FFEBA2" height="16.98113" id="ebc5fab0795043fb9da738f314d71195-aa-3" stroke="#2D2D2D" width="100.47169" x="443.3302" y="156.11322"/>
  <rect fill="#FFEBA2" height="16.98113" id="ebc5fab0795043fb9da738f314d71195-aa-4" stroke="#2D2D2D" width="100.47169" x="148.28304" y="178.04718"/>
  <rect fill="#FFEBA2" height="16.98113" id="ebc5fab0795043fb9da738f314d71195-aa-5" stroke="#2D2D2D" width="100.47169" x="264.32076" y="178.04718"/>
  <rect fill="#FFEBA2" height="16.98113" id="ebc5fab0795043fb9da738f314d71195-aa-6" stroke="#2D2D2D" width="100.47169" x="442.62263" y="178.04717"/>
  <rect fill="#FFEBA2" height="16.98113" id="ebc5fab0795043fb9da738f314d71195-aa-7" stroke="#2D2D2D" width="54.48113" x="503.4717" y="197.8585"/>
  <rect fill="#FFEBA2" height="16.98113" id="ebc5fab0795043fb9da738f314d71195-aa-8" stroke="#2D2D2D" width="107.54717" x="267.15096" y="198.56605"/>
  <rect fill="#FFEBA2" height="16.98113" id="ebc5fab0795043fb9da738f314d71195-aa-9" stroke="#2D2D2D" width="54.48113" x="202.05662" y="197.85849"/>
  <rect fill="#FFEBA2" height="16.98113" id="ebc5fab0795043fb9da738f314d71195-aa-10" stroke="#2D2D2D" width="50.94339" x="205.59433" y="219.08491"/>
  <rect fill="#FFEBA2" height="16.98113" id="ebc5fab0795043fb9da738f314d71195-aa-11" stroke="#2D2D2D" width="50.94339" x="497.81133" y="219.79245"/>
  <rect fill="#FFEBA2" height="16.98113" id="ebc5fab0795043fb9da738f314d71195-aa-12" stroke="#2D2D2D" width="53.77358" x="497.10375" y="256.5849"/>
  <rect fill="#FFEBA2" height="16.98113" id="ebc5fab0795043fb9da738f314d71195-aa-13" stroke="#2D2D2D" width="49.5283" x="207.71697" y="255.87736"/>
  <rect fill="#FFEBA2" height="16.98113" id="ebc5fab0795043fb9da738f314d71195-aa-14" stroke="#2D2D2D" width="53.77358" x="494.98113" y="291.25472"/>
  <rect fill="#FFEBA2" height="16.98113" id="ebc5fab0795043fb9da738f314d71195-aa-15" stroke="#2D2D2D" width="53.77358" x="204.17925" y="291.25471"/>
  <rect fill="#FFEBA2" height="16.98113" id="ebc5fab0795043fb9da738f314d71195-aa-16" stroke="#2D2D2D" width="53.77358" x="157.48116" y="327.33963"/>
  <rect fill="#FFEBA2" height="16.98113" id="ebc5fab0795043fb9da738f314d71195-aa-17" stroke="#2D2D2D" width="135.1415" x="271.39624" y="325.92453"/>
  <rect fill="#FFEBA2" height="16.98113" id="ebc5fab0795043fb9da738f314d71195-aa-18" stroke="#2D2D2D" width="53.77357" x="297.22171" y="354.22641"/>
  <rect fill="#FFEBA2" height="16.98113" id="ebc5fab0795043fb9da738f314d71195-aa-19" stroke="#2D2D2D" width="145.7547" x="448.99065" y="324.50944"/>
  <rect fill="#FFEBA2" height="16.98113" id="ebc5fab0795043fb9da738f314d71195-aa-20" stroke="#2D2D2D" width="100.47169" x="494.98112" y="354.22642"/>
  <rect fill="#FFEBA2" height="16.98113" id="ebc5fab0795043fb9da738f314d71195-aa-21" stroke="#2D2D2D" width="60.84905" x="150.40567" y="391.72642"/>
  <rect fill="#FFEBA2" height="16.98113" id="ebc5fab0795043fb9da738f314d71195-aa-22" stroke="#2D2D2D" width="60.84905" x="441.20755" y="296.91511"/>
  <rect fill="#FFEBA2" height="31.13208" id="ebc5fab0795043fb9da738f314d71195-aa-23" stroke="#2D2D2D" width="157.783" x="269.2736" y="389.60377"/>
  <rect fill="#FFEBA2" height="31.13208" id="ebc5fab0795043fb9da738f314d71195-aa-24" stroke="#2D2D2D" width="169.8113" x="444.39152" y="390.31133"/>
 </g>
</svg>