<svg height="720" width="1440" xmlns="http://www.w3.org/2000/svg">
 <!-- Created with Image Occlusion Enhanced -->
 <g>
  <title>Labels</title>
 </g>
 <g>
  <title>Masks</title>
  <rect fill="#ffaaaa" height="30" id="f8b172c07f2f43008408ddf2df15a6e3-oa-1" stroke="#2D2D2D" width="514.99999" x="369.99999" y="47.5"/>
  <rect fill="#ffaaaa" height="42.5" id="f8b172c07f2f43008408ddf2df15a6e3-oa-2" stroke="#2D2D2D" width="335" x="52.5" y="80"/>
  <rect fill="#ffaaaa" height="35" id="f8b172c07f2f43008408ddf2df15a6e3-oa-3" stroke="#2D2D2D" width="922.49999" x="117.5" y="130"/>
  <rect fill="#ffaaaa" height="35" id="f8b172c07f2f43008408ddf2df15a6e3-oa-4" stroke="#2D2D2D" width="247.5" x="52.5" y="172.5"/>
  <rect fill="#ffaaaa" height="27.5" id="f8b172c07f2f43008408ddf2df15a6e3-oa-5" stroke="#2D2D2D" width="302.5" x="117.5" y="212.5"/>
  <rect fill="#ffaaaa" height="32.5" id="f8b172c07f2f43008408ddf2df15a6e3-oa-6" stroke="#2D2D2D" width="547.49999" x="117.5" y="247.5"/>
  <rect fill="#ffaaaa" height="42.5" id="f8b172c07f2f43008408ddf2df15a6e3-oa-7" stroke="#2D2D2D" width="127.5" x="52.5" y="285"/>
  <rect fill="#ffaaaa" height="30" id="f8b172c07f2f43008408ddf2df15a6e3-oa-8" stroke="#2D2D2D" width="497.49999" x="112.5" y="327.5"/>
  <rect fill="#ffaaaa" height="40" id="f8b172c07f2f43008408ddf2df15a6e3-oa-9" stroke="#2D2D2D" width="364.99999" x="65" y="367.49999"/>
  <rect fill="#ffaaaa" height="32.5" id="f8b172c07f2f43008408ddf2df15a6e3-oa-10" stroke="#2D2D2D" width="290" x="117.5" y="412.49999"/>
  <rect fill="#ffaaaa" height="30" id="f8b172c07f2f43008408ddf2df15a6e3-oa-11" stroke="#2D2D2D" width="342.49999" x="57.5" y="454.99999"/>
  <rect fill="#ffaaaa" height="27.5" id="f8b172c07f2f43008408ddf2df15a6e3-oa-12" stroke="#2D2D2D" width="417.49999" x="115" y="492.49999"/>
  <rect fill="#ffaaaa" height="37.5" id="f8b172c07f2f43008408ddf2df15a6e3-oa-13" stroke="#2D2D2D" width="322.5" x="60" y="534.99999"/>
  <rect fill="#ffaaaa" height="30" id="f8b172c07f2f43008408ddf2df15a6e3-oa-14" stroke="#2D2D2D" width="492.49999" x="120" y="579.99999"/>
  <rect fill="#ffaaaa" height="25" id="f8b172c07f2f43008408ddf2df15a6e3-oa-15" stroke="#2D2D2D" width="285" x="60" y="619.99999"/>
  <rect fill="#ffaaaa" height="25" id="f8b172c07f2f43008408ddf2df15a6e3-oa-16" stroke="#2D2D2D" width="442.49999" x="117.5" y="659.99999"/>
 </g>
</svg>